<mxfile host="Electron" modified="2024-07-08T10:17:09.169Z" agent="Mozilla/5.0 (X11; Linux x86_64) AppleWebKit/537.36 (KHTML, like Gecko) draw.io/21.6.1 Chrome/112.0.5615.204 Electron/24.6.1 Safari/537.36" etag="xDgv-EVCsMYiOARHEc4s" version="21.6.1" type="device">
  <diagram name="Page-1" id="0g2xzgohbH92EA-XBQqj">
    <mxGraphModel dx="4947" dy="2377" grid="1" gridSize="10" guides="1" tooltips="1" connect="1" arrows="1" fold="1" page="1" pageScale="1" pageWidth="850" pageHeight="1100" math="0" shadow="0">
      <root>
        <mxCell id="0" />
        <mxCell id="1" parent="0" />
        <mxCell id="AxeUdkAFy8dNkmWW4xOx-241" value="" style="group" vertex="1" connectable="0" parent="1">
          <mxGeometry x="180" y="1090" width="740" height="730" as="geometry" />
        </mxCell>
        <mxCell id="AxeUdkAFy8dNkmWW4xOx-217" value="" style="rounded=1;whiteSpace=wrap;html=1;fillColor=#008a00;fontColor=#ffffff;strokeColor=#005700;fontStyle=1;opacity=30;" vertex="1" parent="AxeUdkAFy8dNkmWW4xOx-241">
          <mxGeometry y="120" width="740" height="360" as="geometry" />
        </mxCell>
        <mxCell id="AxeUdkAFy8dNkmWW4xOx-216" style="edgeStyle=orthogonalEdgeStyle;rounded=0;orthogonalLoop=1;jettySize=auto;html=1;" edge="1" parent="AxeUdkAFy8dNkmWW4xOx-241" source="AxeUdkAFy8dNkmWW4xOx-189">
          <mxGeometry relative="1" as="geometry">
            <mxPoint x="440" y="380" as="targetPoint" />
          </mxGeometry>
        </mxCell>
        <mxCell id="AxeUdkAFy8dNkmWW4xOx-189" value="&lt;font style=&quot;font-size: 15px;&quot;&gt;+&lt;/font&gt;" style="ellipse;whiteSpace=wrap;html=1;aspect=fixed;fontSize=15;" vertex="1" parent="AxeUdkAFy8dNkmWW4xOx-241">
          <mxGeometry x="430" y="400" width="20" height="20" as="geometry" />
        </mxCell>
        <mxCell id="AxeUdkAFy8dNkmWW4xOx-190" style="edgeStyle=orthogonalEdgeStyle;rounded=0;orthogonalLoop=1;jettySize=auto;html=1;fontSize=15;" edge="1" parent="AxeUdkAFy8dNkmWW4xOx-241" source="AxeUdkAFy8dNkmWW4xOx-191" target="AxeUdkAFy8dNkmWW4xOx-189">
          <mxGeometry relative="1" as="geometry" />
        </mxCell>
        <mxCell id="AxeUdkAFy8dNkmWW4xOx-191" value="&lt;span style=&quot;color: rgb(0, 0, 0); font-family: Helvetica; font-size: 15px; font-style: normal; font-variant-ligatures: normal; font-variant-caps: normal; font-weight: 700; letter-spacing: normal; orphans: 2; text-align: center; text-indent: 0px; text-transform: none; widows: 2; word-spacing: 0px; -webkit-text-stroke-width: 0px; text-decoration-thickness: initial; text-decoration-style: initial; text-decoration-color: initial; float: none; display: inline !important;&quot;&gt;Positional Encoding&lt;/span&gt;" style="text;whiteSpace=wrap;html=1;labelBackgroundColor=none;fontSize=15;" vertex="1" parent="AxeUdkAFy8dNkmWW4xOx-241">
          <mxGeometry x="325" y="390" width="80" height="40" as="geometry" />
        </mxCell>
        <mxCell id="AxeUdkAFy8dNkmWW4xOx-195" style="edgeStyle=orthogonalEdgeStyle;rounded=0;orthogonalLoop=1;jettySize=auto;html=1;entryX=0.5;entryY=1;entryDx=0;entryDy=0;" edge="1" parent="AxeUdkAFy8dNkmWW4xOx-241" source="AxeUdkAFy8dNkmWW4xOx-193" target="AxeUdkAFy8dNkmWW4xOx-189">
          <mxGeometry relative="1" as="geometry">
            <Array as="points">
              <mxPoint x="365" y="440" />
              <mxPoint x="440" y="440" />
            </Array>
          </mxGeometry>
        </mxCell>
        <mxCell id="AxeUdkAFy8dNkmWW4xOx-193" value="" style="rounded=1;whiteSpace=wrap;html=1;fillColor=#bac8d3;strokeColor=#23445d;" vertex="1" parent="AxeUdkAFy8dNkmWW4xOx-241">
          <mxGeometry x="350" y="470" width="30" height="260" as="geometry" />
        </mxCell>
        <mxCell id="AxeUdkAFy8dNkmWW4xOx-196" style="edgeStyle=orthogonalEdgeStyle;rounded=0;orthogonalLoop=1;jettySize=auto;html=1;entryX=0.5;entryY=1;entryDx=0;entryDy=0;" edge="1" parent="AxeUdkAFy8dNkmWW4xOx-241" source="AxeUdkAFy8dNkmWW4xOx-194" target="AxeUdkAFy8dNkmWW4xOx-189">
          <mxGeometry relative="1" as="geometry">
            <Array as="points">
              <mxPoint x="545" y="440" />
              <mxPoint x="440" y="440" />
            </Array>
          </mxGeometry>
        </mxCell>
        <mxCell id="AxeUdkAFy8dNkmWW4xOx-198" value="Bar 2 Embedding" style="text;html=1;strokeColor=none;fillColor=none;align=center;verticalAlign=middle;whiteSpace=wrap;rounded=0;rotation=-90;fontStyle=1;fontSize=15;" vertex="1" parent="AxeUdkAFy8dNkmWW4xOx-241">
          <mxGeometry x="266.5" y="602.5" width="195" height="20" as="geometry" />
        </mxCell>
        <mxCell id="AxeUdkAFy8dNkmWW4xOx-200" value="" style="group;verticalAlign=middle;fillColor=#bac8d3;strokeColor=#23445d;rounded=1;" vertex="1" connectable="0" parent="AxeUdkAFy8dNkmWW4xOx-241">
          <mxGeometry x="530" y="470" width="30" height="260" as="geometry" />
        </mxCell>
        <mxCell id="AxeUdkAFy8dNkmWW4xOx-194" value="" style="rounded=1;whiteSpace=wrap;html=1;fillColor=#bac8d3;strokeColor=#23445d;" vertex="1" parent="AxeUdkAFy8dNkmWW4xOx-200">
          <mxGeometry width="30" height="260" as="geometry" />
        </mxCell>
        <mxCell id="AxeUdkAFy8dNkmWW4xOx-199" value="Bar M Embedding" style="text;html=1;strokeColor=none;fillColor=none;align=center;verticalAlign=middle;whiteSpace=wrap;rounded=0;rotation=-90;fontStyle=1;fontSize=15;" vertex="1" parent="AxeUdkAFy8dNkmWW4xOx-200">
          <mxGeometry x="-82.5" y="125" width="195" height="20" as="geometry" />
        </mxCell>
        <mxCell id="AxeUdkAFy8dNkmWW4xOx-202" value="" style="group;fontSize=15;" vertex="1" connectable="0" parent="AxeUdkAFy8dNkmWW4xOx-241">
          <mxGeometry x="420" y="600" width="70" height="20" as="geometry" />
        </mxCell>
        <mxCell id="AxeUdkAFy8dNkmWW4xOx-203" value="" style="ellipse;whiteSpace=wrap;html=1;aspect=fixed;fillColor=#000000;fontSize=15;" vertex="1" parent="AxeUdkAFy8dNkmWW4xOx-202">
          <mxGeometry width="8.888888888888888" height="8.888888888888888" as="geometry" />
        </mxCell>
        <mxCell id="AxeUdkAFy8dNkmWW4xOx-204" value="" style="ellipse;whiteSpace=wrap;html=1;aspect=fixed;fillColor=#000000;fontSize=15;" vertex="1" parent="AxeUdkAFy8dNkmWW4xOx-202">
          <mxGeometry x="28" width="8.888888888888888" height="8.888888888888888" as="geometry" />
        </mxCell>
        <mxCell id="AxeUdkAFy8dNkmWW4xOx-205" value="" style="ellipse;whiteSpace=wrap;html=1;aspect=fixed;fillColor=#000000;fontSize=15;" vertex="1" parent="AxeUdkAFy8dNkmWW4xOx-202">
          <mxGeometry x="56" width="8.888888888888888" height="8.888888888888888" as="geometry" />
        </mxCell>
        <mxCell id="AxeUdkAFy8dNkmWW4xOx-207" value="" style="group" vertex="1" connectable="0" parent="AxeUdkAFy8dNkmWW4xOx-241">
          <mxGeometry x="300" y="470" width="30" height="260" as="geometry" />
        </mxCell>
        <mxCell id="AxeUdkAFy8dNkmWW4xOx-182" value="" style="rounded=1;whiteSpace=wrap;html=1;fillColor=#bac8d3;strokeColor=#23445d;" vertex="1" parent="AxeUdkAFy8dNkmWW4xOx-207">
          <mxGeometry width="30" height="260" as="geometry" />
        </mxCell>
        <mxCell id="AxeUdkAFy8dNkmWW4xOx-197" value="Bar 1 Embedding" style="text;html=1;strokeColor=none;fillColor=none;align=center;verticalAlign=middle;whiteSpace=wrap;rounded=0;rotation=-90;fontStyle=1;fontSize=15;" vertex="1" parent="AxeUdkAFy8dNkmWW4xOx-207">
          <mxGeometry x="-80" y="132.5" width="188" height="20" as="geometry" />
        </mxCell>
        <mxCell id="AxeUdkAFy8dNkmWW4xOx-192" style="edgeStyle=orthogonalEdgeStyle;rounded=0;orthogonalLoop=1;jettySize=auto;html=1;entryX=0.5;entryY=1;entryDx=0;entryDy=0;" edge="1" parent="AxeUdkAFy8dNkmWW4xOx-241" source="AxeUdkAFy8dNkmWW4xOx-182" target="AxeUdkAFy8dNkmWW4xOx-189">
          <mxGeometry relative="1" as="geometry">
            <Array as="points">
              <mxPoint x="315" y="440" />
              <mxPoint x="440" y="440" />
            </Array>
          </mxGeometry>
        </mxCell>
        <mxCell id="AxeUdkAFy8dNkmWW4xOx-218" value="" style="rounded=1;whiteSpace=wrap;html=1;fillColor=#fad7ac;strokeColor=#b46504;" vertex="1" parent="AxeUdkAFy8dNkmWW4xOx-241">
          <mxGeometry x="350" width="30" height="260" as="geometry" />
        </mxCell>
        <mxCell id="AxeUdkAFy8dNkmWW4xOx-219" value="Performance Memory 2" style="text;html=1;strokeColor=none;fillColor=none;align=center;verticalAlign=middle;whiteSpace=wrap;rounded=0;rotation=-90;fontStyle=1;fontSize=15;" vertex="1" parent="AxeUdkAFy8dNkmWW4xOx-241">
          <mxGeometry x="266.5" y="132.5" width="195" height="20" as="geometry" />
        </mxCell>
        <mxCell id="AxeUdkAFy8dNkmWW4xOx-220" value="" style="group;verticalAlign=middle;fillColor=#fad7ac;strokeColor=#b46504;rounded=1;" vertex="1" connectable="0" parent="AxeUdkAFy8dNkmWW4xOx-241">
          <mxGeometry x="530" width="30" height="260" as="geometry" />
        </mxCell>
        <mxCell id="AxeUdkAFy8dNkmWW4xOx-221" value="" style="rounded=1;whiteSpace=wrap;html=1;fillColor=#fad7ac;strokeColor=#b46504;" vertex="1" parent="AxeUdkAFy8dNkmWW4xOx-220">
          <mxGeometry width="30" height="260" as="geometry" />
        </mxCell>
        <mxCell id="AxeUdkAFy8dNkmWW4xOx-222" value="Performance Memory M" style="text;html=1;strokeColor=none;fillColor=none;align=center;verticalAlign=middle;whiteSpace=wrap;rounded=0;rotation=-90;fontStyle=1;fontSize=15;" vertex="1" parent="AxeUdkAFy8dNkmWW4xOx-220">
          <mxGeometry x="-82.5" y="125" width="195" height="20" as="geometry" />
        </mxCell>
        <mxCell id="AxeUdkAFy8dNkmWW4xOx-227" value="" style="group;fillColor=#fad7ac;strokeColor=#b46504;" vertex="1" connectable="0" parent="AxeUdkAFy8dNkmWW4xOx-241">
          <mxGeometry x="300" width="30" height="260" as="geometry" />
        </mxCell>
        <mxCell id="AxeUdkAFy8dNkmWW4xOx-228" value="" style="rounded=1;whiteSpace=wrap;html=1;fillColor=#fad7ac;strokeColor=#b46504;" vertex="1" parent="AxeUdkAFy8dNkmWW4xOx-227">
          <mxGeometry width="30" height="260" as="geometry" />
        </mxCell>
        <mxCell id="AxeUdkAFy8dNkmWW4xOx-229" value="Performance Memory 1" style="text;html=1;strokeColor=none;fillColor=none;align=center;verticalAlign=middle;whiteSpace=wrap;rounded=0;rotation=-90;fontStyle=1;fontSize=15;" vertex="1" parent="AxeUdkAFy8dNkmWW4xOx-227">
          <mxGeometry x="-80" y="132.5" width="188" height="20" as="geometry" />
        </mxCell>
        <mxCell id="AxeUdkAFy8dNkmWW4xOx-233" style="edgeStyle=orthogonalEdgeStyle;rounded=0;orthogonalLoop=1;jettySize=auto;html=1;entryX=0.5;entryY=1;entryDx=0;entryDy=0;" edge="1" parent="AxeUdkAFy8dNkmWW4xOx-241" source="AxeUdkAFy8dNkmWW4xOx-232" target="AxeUdkAFy8dNkmWW4xOx-228">
          <mxGeometry relative="1" as="geometry">
            <Array as="points">
              <mxPoint x="440" y="280" />
              <mxPoint x="315" y="280" />
            </Array>
          </mxGeometry>
        </mxCell>
        <mxCell id="AxeUdkAFy8dNkmWW4xOx-234" style="edgeStyle=orthogonalEdgeStyle;rounded=0;orthogonalLoop=1;jettySize=auto;html=1;entryX=0.5;entryY=1;entryDx=0;entryDy=0;" edge="1" parent="AxeUdkAFy8dNkmWW4xOx-241" source="AxeUdkAFy8dNkmWW4xOx-232" target="AxeUdkAFy8dNkmWW4xOx-218">
          <mxGeometry relative="1" as="geometry">
            <Array as="points">
              <mxPoint x="440" y="280" />
              <mxPoint x="365" y="280" />
            </Array>
          </mxGeometry>
        </mxCell>
        <mxCell id="AxeUdkAFy8dNkmWW4xOx-235" style="edgeStyle=orthogonalEdgeStyle;rounded=0;orthogonalLoop=1;jettySize=auto;html=1;entryX=0.5;entryY=1;entryDx=0;entryDy=0;" edge="1" parent="AxeUdkAFy8dNkmWW4xOx-241" source="AxeUdkAFy8dNkmWW4xOx-232" target="AxeUdkAFy8dNkmWW4xOx-221">
          <mxGeometry relative="1" as="geometry">
            <Array as="points">
              <mxPoint x="440" y="280" />
              <mxPoint x="545" y="280" />
            </Array>
          </mxGeometry>
        </mxCell>
        <mxCell id="AxeUdkAFy8dNkmWW4xOx-232" value="Causal Transformer&lt;br style=&quot;border-color: var(--border-color); font-size: 16px;&quot;&gt;&lt;span style=&quot;font-size: 16px;&quot;&gt;with Self-Attention&lt;/span&gt;" style="rounded=1;whiteSpace=wrap;html=1;fillColor=#008a00;fontColor=#ffffff;strokeColor=#005700;fontStyle=1;fontSize=17;" vertex="1" parent="AxeUdkAFy8dNkmWW4xOx-241">
          <mxGeometry x="220" y="310" width="440" height="70" as="geometry" />
        </mxCell>
        <mxCell id="AxeUdkAFy8dNkmWW4xOx-236" value="&lt;h1&gt;Performance&lt;br&gt;Encoder&lt;/h1&gt;&lt;p&gt;&lt;font style=&quot;font-size: 16px;&quot;&gt;Encodes the single bar performances into a memory sequence used for decoder&#39;s cross-attention&lt;/font&gt;&lt;/p&gt;" style="text;html=1;strokeColor=default;fillColor=none;spacing=5;spacingTop=-20;whiteSpace=wrap;overflow=hidden;rounded=0;" vertex="1" parent="AxeUdkAFy8dNkmWW4xOx-241">
          <mxGeometry x="20" y="150" width="190" height="187.5" as="geometry" />
        </mxCell>
        <mxCell id="AxeUdkAFy8dNkmWW4xOx-239" value="(M x d&lt;sub style=&quot;border-color: var(--border-color); font-size: 15px;&quot;&gt;model&lt;/sub&gt;&lt;span style=&quot;font-size: 15px;&quot;&gt;)&lt;/span&gt;" style="text;html=1;strokeColor=none;fillColor=none;align=center;verticalAlign=middle;whiteSpace=wrap;rounded=0;fontStyle=1;fontSize=15;" vertex="1" parent="AxeUdkAFy8dNkmWW4xOx-241">
          <mxGeometry x="429" y="379" width="150" height="30" as="geometry" />
        </mxCell>
        <mxCell id="AxeUdkAFy8dNkmWW4xOx-240" value="(M x d&lt;sub style=&quot;border-color: var(--border-color); font-size: 15px;&quot;&gt;model&lt;/sub&gt;&lt;span style=&quot;font-size: 15px;&quot;&gt;)&lt;/span&gt;" style="text;html=1;strokeColor=none;fillColor=none;align=center;verticalAlign=middle;whiteSpace=wrap;rounded=0;fontStyle=1;fontSize=15;" vertex="1" parent="AxeUdkAFy8dNkmWW4xOx-241">
          <mxGeometry x="430" y="280" width="150" height="30" as="geometry" />
        </mxCell>
        <mxCell id="AxeUdkAFy8dNkmWW4xOx-419" value="" style="group;fontSize=15;" vertex="1" connectable="0" parent="1">
          <mxGeometry x="600" y="1210" width="70" height="20" as="geometry" />
        </mxCell>
        <mxCell id="AxeUdkAFy8dNkmWW4xOx-420" value="" style="ellipse;whiteSpace=wrap;html=1;aspect=fixed;fillColor=#000000;fontSize=15;" vertex="1" parent="AxeUdkAFy8dNkmWW4xOx-419">
          <mxGeometry width="8.888888888888888" height="8.888888888888888" as="geometry" />
        </mxCell>
        <mxCell id="AxeUdkAFy8dNkmWW4xOx-421" value="" style="ellipse;whiteSpace=wrap;html=1;aspect=fixed;fillColor=#000000;fontSize=15;" vertex="1" parent="AxeUdkAFy8dNkmWW4xOx-419">
          <mxGeometry x="28" width="8.888888888888888" height="8.888888888888888" as="geometry" />
        </mxCell>
        <mxCell id="AxeUdkAFy8dNkmWW4xOx-422" value="" style="ellipse;whiteSpace=wrap;html=1;aspect=fixed;fillColor=#000000;fontSize=15;" vertex="1" parent="AxeUdkAFy8dNkmWW4xOx-419">
          <mxGeometry x="56" width="8.888888888888888" height="8.888888888888888" as="geometry" />
        </mxCell>
        <mxCell id="AxeUdkAFy8dNkmWW4xOx-440" value="" style="group" vertex="1" connectable="0" parent="1">
          <mxGeometry x="-160" y="181" width="990" height="479" as="geometry" />
        </mxCell>
        <mxCell id="AxeUdkAFy8dNkmWW4xOx-101" value="" style="rounded=1;whiteSpace=wrap;html=1;fillColor=#f0a30a;strokeColor=#BD7000;fontColor=#000000;opacity=30;" vertex="1" parent="AxeUdkAFy8dNkmWW4xOx-440">
          <mxGeometry x="130" y="129" width="540" height="80" as="geometry" />
        </mxCell>
        <mxCell id="AxeUdkAFy8dNkmWW4xOx-31" value="&lt;u&gt;GrooveEncoder&lt;/u&gt;&lt;br&gt;&lt;br&gt;&lt;font style=&quot;font-size: 10px;&quot;&gt;Non-causal&lt;br&gt;Transformer&lt;/font&gt;" style="rounded=1;whiteSpace=wrap;html=1;fillColor=#f0a30a;fontColor=#000000;strokeColor=#BD7000;fontStyle=1" vertex="1" parent="AxeUdkAFy8dNkmWW4xOx-440">
          <mxGeometry x="200" y="139" width="100" height="60" as="geometry" />
        </mxCell>
        <mxCell id="AxeUdkAFy8dNkmWW4xOx-32" value="&lt;u&gt;GrooveEncoder&lt;/u&gt;&lt;br style=&quot;border-color: var(--border-color);&quot;&gt;&lt;br style=&quot;border-color: var(--border-color);&quot;&gt;&lt;span style=&quot;font-size: 10px;&quot;&gt;&lt;br&gt;&lt;br&gt;&lt;/span&gt;" style="rounded=1;whiteSpace=wrap;html=1;fillColor=#f0a30a;fontColor=#000000;strokeColor=#BD7000;fontStyle=1" vertex="1" parent="AxeUdkAFy8dNkmWW4xOx-440">
          <mxGeometry x="310" y="139" width="100" height="60" as="geometry" />
        </mxCell>
        <mxCell id="AxeUdkAFy8dNkmWW4xOx-33" value="&lt;u style=&quot;border-color: var(--border-color);&quot;&gt;GrooveEncoder&lt;/u&gt;&lt;br style=&quot;border-color: var(--border-color);&quot;&gt;&lt;br style=&quot;border-color: var(--border-color);&quot;&gt;&lt;br style=&quot;border-color: var(--border-color);&quot;&gt;&amp;nbsp;" style="rounded=1;whiteSpace=wrap;html=1;fillColor=#f0a30a;fontColor=#000000;strokeColor=#BD7000;fontStyle=1" vertex="1" parent="AxeUdkAFy8dNkmWW4xOx-440">
          <mxGeometry x="420" y="139" width="100" height="60" as="geometry" />
        </mxCell>
        <mxCell id="AxeUdkAFy8dNkmWW4xOx-34" value="&lt;u style=&quot;border-color: var(--border-color);&quot;&gt;GrooveEncoder&lt;/u&gt;&lt;br style=&quot;border-color: var(--border-color);&quot;&gt;&lt;br style=&quot;border-color: var(--border-color);&quot;&gt;&lt;br&gt;&amp;nbsp;" style="rounded=1;whiteSpace=wrap;html=1;fillColor=#f0a30a;fontColor=#000000;strokeColor=#BD7000;fontStyle=1" vertex="1" parent="AxeUdkAFy8dNkmWW4xOx-440">
          <mxGeometry x="530" y="139" width="100" height="60" as="geometry" />
        </mxCell>
        <mxCell id="AxeUdkAFy8dNkmWW4xOx-38" value="" style="group" vertex="1" connectable="0" parent="AxeUdkAFy8dNkmWW4xOx-440">
          <mxGeometry x="420" y="239" width="100" height="240" as="geometry" />
        </mxCell>
        <mxCell id="AxeUdkAFy8dNkmWW4xOx-8" value="..." style="rounded=0;whiteSpace=wrap;html=1;container=0;fillColor=#6d8764;fontColor=#ffffff;strokeColor=#3A5431;strokeWidth=3;" vertex="1" parent="AxeUdkAFy8dNkmWW4xOx-38">
          <mxGeometry y="220" width="100" height="20" as="geometry" />
        </mxCell>
        <mxCell id="AxeUdkAFy8dNkmWW4xOx-9" value="..." style="rounded=0;whiteSpace=wrap;html=1;container=0;fillColor=#6d8764;fontColor=#ffffff;strokeColor=#3A5431;strokeWidth=3;" vertex="1" parent="AxeUdkAFy8dNkmWW4xOx-38">
          <mxGeometry y="160" width="100" height="60" as="geometry" />
        </mxCell>
        <mxCell id="AxeUdkAFy8dNkmWW4xOx-17" value="..." style="rounded=0;whiteSpace=wrap;html=1;container=0;fillColor=#647687;fontColor=#ffffff;strokeColor=#314354;strokeWidth=3;" vertex="1" parent="AxeUdkAFy8dNkmWW4xOx-38">
          <mxGeometry y="140" width="100" height="20" as="geometry" />
        </mxCell>
        <mxCell id="AxeUdkAFy8dNkmWW4xOx-18" value="..." style="rounded=0;whiteSpace=wrap;html=1;container=0;fillColor=#647687;fontColor=#ffffff;strokeColor=#314354;strokeWidth=3;" vertex="1" parent="AxeUdkAFy8dNkmWW4xOx-38">
          <mxGeometry y="80" width="100" height="60" as="geometry" />
        </mxCell>
        <mxCell id="AxeUdkAFy8dNkmWW4xOx-25" value="..." style="rounded=0;whiteSpace=wrap;html=1;container=0;fillColor=#76608a;fontColor=#ffffff;strokeColor=#432D57;strokeWidth=3;" vertex="1" parent="AxeUdkAFy8dNkmWW4xOx-38">
          <mxGeometry y="60" width="100" height="20" as="geometry" />
        </mxCell>
        <mxCell id="AxeUdkAFy8dNkmWW4xOx-26" value="..." style="rounded=0;whiteSpace=wrap;html=1;container=0;fillColor=#76608a;fontColor=#ffffff;strokeColor=#432D57;strokeWidth=3;" vertex="1" parent="AxeUdkAFy8dNkmWW4xOx-38">
          <mxGeometry width="100" height="60" as="geometry" />
        </mxCell>
        <mxCell id="AxeUdkAFy8dNkmWW4xOx-42" value="" style="group" vertex="1" connectable="0" parent="AxeUdkAFy8dNkmWW4xOx-440">
          <mxGeometry x="530" y="239" width="100" height="240" as="geometry" />
        </mxCell>
        <mxCell id="AxeUdkAFy8dNkmWW4xOx-11" value="IG&lt;sub style=&quot;border-color: var(--border-color);&quot;&gt;H&lt;/sub&gt;&lt;sup style=&quot;border-color: var(--border-color);&quot;&gt;M&lt;/sup&gt;" style="rounded=0;whiteSpace=wrap;html=1;container=0;fillColor=#6d8764;fontColor=#ffffff;strokeColor=#3A5431;strokeWidth=3;" vertex="1" parent="AxeUdkAFy8dNkmWW4xOx-42">
          <mxGeometry y="220" width="100" height="20" as="geometry" />
        </mxCell>
        <mxCell id="AxeUdkAFy8dNkmWW4xOx-12" value="DP&lt;sub style=&quot;border-color: var(--border-color);&quot;&gt;H&lt;/sub&gt;&lt;sup style=&quot;border-color: var(--border-color);&quot;&gt;M&lt;/sup&gt;" style="rounded=0;whiteSpace=wrap;html=1;container=0;fillColor=#6d8764;fontColor=#ffffff;strokeColor=#3A5431;strokeWidth=3;" vertex="1" parent="AxeUdkAFy8dNkmWW4xOx-42">
          <mxGeometry y="160" width="100" height="60" as="geometry" />
        </mxCell>
        <mxCell id="AxeUdkAFy8dNkmWW4xOx-19" value="IG&lt;sub style=&quot;border-color: var(--border-color);&quot;&gt;V&lt;/sub&gt;&lt;sup style=&quot;border-color: var(--border-color);&quot;&gt;M&lt;/sup&gt;" style="rounded=0;whiteSpace=wrap;html=1;container=0;fillColor=#647687;fontColor=#ffffff;strokeColor=#314354;strokeWidth=3;" vertex="1" parent="AxeUdkAFy8dNkmWW4xOx-42">
          <mxGeometry y="140" width="100" height="20" as="geometry" />
        </mxCell>
        <mxCell id="AxeUdkAFy8dNkmWW4xOx-20" value="DP&lt;sub style=&quot;border-color: var(--border-color);&quot;&gt;V&lt;/sub&gt;&lt;sup style=&quot;border-color: var(--border-color);&quot;&gt;M&lt;/sup&gt;" style="rounded=0;whiteSpace=wrap;html=1;container=0;fillColor=#647687;fontColor=#ffffff;strokeColor=#314354;strokeWidth=3;" vertex="1" parent="AxeUdkAFy8dNkmWW4xOx-42">
          <mxGeometry y="80" width="100" height="60" as="geometry" />
        </mxCell>
        <mxCell id="AxeUdkAFy8dNkmWW4xOx-27" value="IG&lt;sub style=&quot;border-color: var(--border-color);&quot;&gt;O&lt;/sub&gt;&lt;sup style=&quot;border-color: var(--border-color);&quot;&gt;M&lt;/sup&gt;" style="rounded=0;whiteSpace=wrap;html=1;container=0;fillColor=#76608a;fontColor=#ffffff;strokeColor=#432D57;strokeWidth=3;" vertex="1" parent="AxeUdkAFy8dNkmWW4xOx-42">
          <mxGeometry y="60" width="100" height="20" as="geometry" />
        </mxCell>
        <mxCell id="AxeUdkAFy8dNkmWW4xOx-28" value="DP&lt;sub style=&quot;border-color: var(--border-color);&quot;&gt;O&lt;/sub&gt;&lt;sup style=&quot;border-color: var(--border-color);&quot;&gt;M&lt;/sup&gt;" style="rounded=0;whiteSpace=wrap;html=1;container=0;fillColor=#76608a;fontColor=#ffffff;strokeColor=#432D57;strokeWidth=3;" vertex="1" parent="AxeUdkAFy8dNkmWW4xOx-42">
          <mxGeometry width="100" height="60" as="geometry" />
        </mxCell>
        <mxCell id="AxeUdkAFy8dNkmWW4xOx-36" value="" style="group" vertex="1" connectable="0" parent="AxeUdkAFy8dNkmWW4xOx-440">
          <mxGeometry x="200" y="239" width="100" height="240" as="geometry" />
        </mxCell>
        <mxCell id="AxeUdkAFy8dNkmWW4xOx-1" value="IG&lt;sub style=&quot;border-color: var(--border-color);&quot;&gt;H&lt;/sub&gt;&lt;sup style=&quot;border-color: var(--border-color);&quot;&gt;1&amp;nbsp;&amp;nbsp;&lt;/sup&gt;(16x1)" style="rounded=0;whiteSpace=wrap;html=1;container=0;fillColor=#6d8764;fontColor=#ffffff;strokeColor=#3A5431;strokeWidth=3;" vertex="1" parent="AxeUdkAFy8dNkmWW4xOx-36">
          <mxGeometry y="220" width="100" height="20" as="geometry" />
        </mxCell>
        <mxCell id="AxeUdkAFy8dNkmWW4xOx-2" value="DP&lt;sub style=&quot;border-color: var(--border-color);&quot;&gt;H&lt;/sub&gt;&lt;sup style=&quot;border-color: var(--border-color);&quot;&gt;1&amp;nbsp; &lt;/sup&gt;&lt;span style=&quot;border-color: var(--border-color);&quot;&gt;(16x9)&lt;/span&gt;" style="rounded=0;whiteSpace=wrap;html=1;container=0;fillColor=#6d8764;fontColor=#ffffff;strokeColor=#3A5431;strokeWidth=3;" vertex="1" parent="AxeUdkAFy8dNkmWW4xOx-36">
          <mxGeometry y="160" width="100" height="60" as="geometry" />
        </mxCell>
        <mxCell id="AxeUdkAFy8dNkmWW4xOx-13" value="IG&lt;sub style=&quot;border-color: var(--border-color);&quot;&gt;V&lt;/sub&gt;&lt;sup style=&quot;border-color: var(--border-color);&quot;&gt;1&amp;nbsp;&amp;nbsp;&lt;/sup&gt;(16x1)" style="rounded=0;whiteSpace=wrap;html=1;container=0;fillColor=#647687;fontColor=#ffffff;strokeColor=#314354;strokeWidth=3;" vertex="1" parent="AxeUdkAFy8dNkmWW4xOx-36">
          <mxGeometry y="140" width="100" height="20" as="geometry" />
        </mxCell>
        <mxCell id="AxeUdkAFy8dNkmWW4xOx-14" value="DP&lt;sub style=&quot;border-color: var(--border-color);&quot;&gt;V&lt;/sub&gt;&lt;sup style=&quot;border-color: var(--border-color);&quot;&gt;1&amp;nbsp; &lt;/sup&gt;&lt;span style=&quot;border-color: var(--border-color);&quot;&gt;(16x9)&lt;/span&gt;" style="rounded=0;whiteSpace=wrap;html=1;container=0;fillColor=#647687;fontColor=#ffffff;strokeColor=#314354;strokeWidth=3;" vertex="1" parent="AxeUdkAFy8dNkmWW4xOx-36">
          <mxGeometry y="80" width="100" height="60" as="geometry" />
        </mxCell>
        <mxCell id="AxeUdkAFy8dNkmWW4xOx-21" value="IG&lt;sub style=&quot;border-color: var(--border-color);&quot;&gt;O&lt;/sub&gt;&lt;sup style=&quot;border-color: var(--border-color);&quot;&gt;1&amp;nbsp;&amp;nbsp;&lt;/sup&gt;(16x1)" style="rounded=0;whiteSpace=wrap;html=1;container=0;fillColor=#76608a;fontColor=#ffffff;strokeColor=#432D57;strokeWidth=3;" vertex="1" parent="AxeUdkAFy8dNkmWW4xOx-36">
          <mxGeometry y="60" width="100" height="20" as="geometry" />
        </mxCell>
        <mxCell id="AxeUdkAFy8dNkmWW4xOx-22" value="DP&lt;sub style=&quot;border-color: var(--border-color);&quot;&gt;O&lt;/sub&gt;&lt;sup style=&quot;border-color: var(--border-color);&quot;&gt;1&amp;nbsp; &lt;/sup&gt;&lt;span style=&quot;border-color: var(--border-color);&quot;&gt;(16x9)&lt;/span&gt;" style="rounded=0;whiteSpace=wrap;html=1;container=0;fillColor=#76608a;fontColor=#ffffff;strokeColor=#432D57;strokeWidth=3;" vertex="1" parent="AxeUdkAFy8dNkmWW4xOx-36">
          <mxGeometry width="100" height="60" as="geometry" />
        </mxCell>
        <mxCell id="AxeUdkAFy8dNkmWW4xOx-43" value="" style="group" vertex="1" connectable="0" parent="AxeUdkAFy8dNkmWW4xOx-440">
          <mxGeometry x="310" y="239" width="100" height="240" as="geometry" />
        </mxCell>
        <mxCell id="AxeUdkAFy8dNkmWW4xOx-5" value="IG&lt;sub style=&quot;border-color: var(--border-color);&quot;&gt;H&lt;/sub&gt;&lt;sup style=&quot;border-color: var(--border-color);&quot;&gt;2&amp;nbsp;&lt;/sup&gt;" style="rounded=0;whiteSpace=wrap;html=1;container=0;fillColor=#6d8764;fontColor=#ffffff;strokeColor=#3A5431;strokeWidth=3;" vertex="1" parent="AxeUdkAFy8dNkmWW4xOx-43">
          <mxGeometry y="220" width="100" height="20" as="geometry" />
        </mxCell>
        <mxCell id="AxeUdkAFy8dNkmWW4xOx-6" value="DP&lt;sub style=&quot;border-color: var(--border-color);&quot;&gt;H&lt;/sub&gt;&lt;sup style=&quot;border-color: var(--border-color);&quot;&gt;2&lt;/sup&gt;" style="rounded=0;whiteSpace=wrap;html=1;container=0;fillColor=#6d8764;fontColor=#ffffff;strokeColor=#3A5431;strokeWidth=3;" vertex="1" parent="AxeUdkAFy8dNkmWW4xOx-43">
          <mxGeometry y="160" width="100" height="60" as="geometry" />
        </mxCell>
        <mxCell id="AxeUdkAFy8dNkmWW4xOx-15" value="IG&lt;sub style=&quot;border-color: var(--border-color);&quot;&gt;V&lt;/sub&gt;&lt;sup style=&quot;border-color: var(--border-color);&quot;&gt;2&amp;nbsp;&lt;/sup&gt;" style="rounded=0;whiteSpace=wrap;html=1;container=0;fillColor=#647687;fontColor=#ffffff;strokeColor=#314354;strokeWidth=3;" vertex="1" parent="AxeUdkAFy8dNkmWW4xOx-43">
          <mxGeometry y="140" width="100" height="20" as="geometry" />
        </mxCell>
        <mxCell id="AxeUdkAFy8dNkmWW4xOx-16" value="DP&lt;sub style=&quot;border-color: var(--border-color);&quot;&gt;V&lt;/sub&gt;&lt;sup style=&quot;border-color: var(--border-color);&quot;&gt;2&lt;/sup&gt;" style="rounded=0;whiteSpace=wrap;html=1;container=0;fillColor=#647687;fontColor=#ffffff;strokeColor=#314354;strokeWidth=3;" vertex="1" parent="AxeUdkAFy8dNkmWW4xOx-43">
          <mxGeometry y="80" width="100" height="60" as="geometry" />
        </mxCell>
        <mxCell id="AxeUdkAFy8dNkmWW4xOx-23" value="IG&lt;sub style=&quot;border-color: var(--border-color);&quot;&gt;O&lt;/sub&gt;&lt;sup style=&quot;border-color: var(--border-color);&quot;&gt;2&amp;nbsp;&lt;/sup&gt;" style="rounded=0;whiteSpace=wrap;html=1;container=0;fillColor=#76608a;fontColor=#ffffff;strokeColor=#432D57;strokeWidth=3;" vertex="1" parent="AxeUdkAFy8dNkmWW4xOx-43">
          <mxGeometry y="60" width="100" height="20" as="geometry" />
        </mxCell>
        <mxCell id="AxeUdkAFy8dNkmWW4xOx-24" value="DP&lt;sub style=&quot;border-color: var(--border-color);&quot;&gt;O&lt;/sub&gt;&lt;sup style=&quot;border-color: var(--border-color);&quot;&gt;2&lt;/sup&gt;" style="rounded=0;whiteSpace=wrap;html=1;container=0;fillColor=#76608a;fontColor=#ffffff;strokeColor=#432D57;strokeWidth=3;" vertex="1" parent="AxeUdkAFy8dNkmWW4xOx-43">
          <mxGeometry width="100" height="60" as="geometry" />
        </mxCell>
        <mxCell id="AxeUdkAFy8dNkmWW4xOx-44" style="edgeStyle=orthogonalEdgeStyle;rounded=0;orthogonalLoop=1;jettySize=auto;html=1;entryX=0.5;entryY=1;entryDx=0;entryDy=0;" edge="1" parent="AxeUdkAFy8dNkmWW4xOx-440" source="AxeUdkAFy8dNkmWW4xOx-22" target="AxeUdkAFy8dNkmWW4xOx-31">
          <mxGeometry relative="1" as="geometry" />
        </mxCell>
        <mxCell id="AxeUdkAFy8dNkmWW4xOx-45" style="edgeStyle=orthogonalEdgeStyle;rounded=0;orthogonalLoop=1;jettySize=auto;html=1;entryX=0.5;entryY=1;entryDx=0;entryDy=0;" edge="1" parent="AxeUdkAFy8dNkmWW4xOx-440" source="AxeUdkAFy8dNkmWW4xOx-24" target="AxeUdkAFy8dNkmWW4xOx-32">
          <mxGeometry relative="1" as="geometry" />
        </mxCell>
        <mxCell id="AxeUdkAFy8dNkmWW4xOx-46" style="edgeStyle=orthogonalEdgeStyle;rounded=0;orthogonalLoop=1;jettySize=auto;html=1;entryX=0.5;entryY=1;entryDx=0;entryDy=0;" edge="1" parent="AxeUdkAFy8dNkmWW4xOx-440" source="AxeUdkAFy8dNkmWW4xOx-26" target="AxeUdkAFy8dNkmWW4xOx-33">
          <mxGeometry relative="1" as="geometry" />
        </mxCell>
        <mxCell id="AxeUdkAFy8dNkmWW4xOx-47" style="edgeStyle=orthogonalEdgeStyle;rounded=0;orthogonalLoop=1;jettySize=auto;html=1;entryX=0.5;entryY=1;entryDx=0;entryDy=0;" edge="1" parent="AxeUdkAFy8dNkmWW4xOx-440" source="AxeUdkAFy8dNkmWW4xOx-28" target="AxeUdkAFy8dNkmWW4xOx-34">
          <mxGeometry relative="1" as="geometry" />
        </mxCell>
        <mxCell id="AxeUdkAFy8dNkmWW4xOx-48" value="&lt;u&gt;PerformanceEncoder&lt;/u&gt;&lt;br&gt;&lt;br&gt;Causal Transformer with Self-Attention" style="rounded=1;whiteSpace=wrap;html=1;fillColor=#008a00;fontColor=#ffffff;strokeColor=#005700;fontStyle=1" vertex="1" parent="AxeUdkAFy8dNkmWW4xOx-440">
          <mxGeometry x="200" width="430" height="90" as="geometry" />
        </mxCell>
        <mxCell id="AxeUdkAFy8dNkmWW4xOx-54" style="edgeStyle=orthogonalEdgeStyle;rounded=0;orthogonalLoop=1;jettySize=auto;html=1;entryX=0.117;entryY=1.017;entryDx=0;entryDy=0;entryPerimeter=0;" edge="1" parent="AxeUdkAFy8dNkmWW4xOx-440" source="AxeUdkAFy8dNkmWW4xOx-31" target="AxeUdkAFy8dNkmWW4xOx-48">
          <mxGeometry relative="1" as="geometry" />
        </mxCell>
        <mxCell id="AxeUdkAFy8dNkmWW4xOx-58" value="(1 x d&lt;sub&gt;model&lt;/sub&gt;)" style="edgeLabel;html=1;align=center;verticalAlign=middle;resizable=0;points=[];labelBackgroundColor=none;fontStyle=1" vertex="1" connectable="0" parent="AxeUdkAFy8dNkmWW4xOx-54">
          <mxGeometry x="-0.0372" relative="1" as="geometry">
            <mxPoint x="40" y="-8" as="offset" />
          </mxGeometry>
        </mxCell>
        <mxCell id="AxeUdkAFy8dNkmWW4xOx-55" style="edgeStyle=orthogonalEdgeStyle;rounded=0;orthogonalLoop=1;jettySize=auto;html=1;entryX=0.372;entryY=1.004;entryDx=0;entryDy=0;entryPerimeter=0;" edge="1" parent="AxeUdkAFy8dNkmWW4xOx-440" source="AxeUdkAFy8dNkmWW4xOx-32" target="AxeUdkAFy8dNkmWW4xOx-48">
          <mxGeometry relative="1" as="geometry" />
        </mxCell>
        <mxCell id="AxeUdkAFy8dNkmWW4xOx-60" value="(M x d&lt;sub&gt;model&lt;/sub&gt;)" style="edgeLabel;html=1;align=center;verticalAlign=middle;resizable=0;points=[];fontStyle=1;labelBackgroundColor=none;" vertex="1" connectable="0" parent="AxeUdkAFy8dNkmWW4xOx-440">
          <mxGeometry x="700" y="379.00333333333333" as="geometry" />
        </mxCell>
        <mxCell id="AxeUdkAFy8dNkmWW4xOx-93" style="edgeStyle=orthogonalEdgeStyle;rounded=0;orthogonalLoop=1;jettySize=auto;html=1;entryX=0.5;entryY=1;entryDx=0;entryDy=0;" edge="1" parent="AxeUdkAFy8dNkmWW4xOx-440" source="AxeUdkAFy8dNkmWW4xOx-61">
          <mxGeometry relative="1" as="geometry">
            <mxPoint x="860.0000000000005" y="284" as="targetPoint" />
          </mxGeometry>
        </mxCell>
        <mxCell id="AxeUdkAFy8dNkmWW4xOx-61" value="&lt;u&gt;DrumDecoder&lt;/u&gt;&lt;br&gt;&lt;br&gt;Causal Transformer with &lt;br&gt;Cross-Attention" style="rounded=1;whiteSpace=wrap;html=1;fillColor=#0050ef;fontColor=#ffffff;strokeColor=#001DBC;fontStyle=1" vertex="1" parent="AxeUdkAFy8dNkmWW4xOx-440">
          <mxGeometry x="750" y="324" width="220" height="65" as="geometry" />
        </mxCell>
        <mxCell id="AxeUdkAFy8dNkmWW4xOx-56" style="edgeStyle=orthogonalEdgeStyle;rounded=0;orthogonalLoop=1;jettySize=auto;html=1;entryX=0.627;entryY=0.996;entryDx=0;entryDy=0;entryPerimeter=0;" edge="1" parent="AxeUdkAFy8dNkmWW4xOx-440" source="AxeUdkAFy8dNkmWW4xOx-33" target="AxeUdkAFy8dNkmWW4xOx-48">
          <mxGeometry relative="1" as="geometry" />
        </mxCell>
        <mxCell id="AxeUdkAFy8dNkmWW4xOx-77" value="(16 x 30)" style="edgeLabel;html=1;align=center;verticalAlign=middle;resizable=0;points=[];labelBackgroundColor=none;fontStyle=1" vertex="1" connectable="0" parent="AxeUdkAFy8dNkmWW4xOx-440">
          <mxGeometry x="287" y="223.99999999999994" as="geometry">
            <mxPoint x="-10" y="-3" as="offset" />
          </mxGeometry>
        </mxCell>
        <mxCell id="AxeUdkAFy8dNkmWW4xOx-86" value="" style="group" vertex="1" connectable="0" parent="AxeUdkAFy8dNkmWW4xOx-440">
          <mxGeometry x="765" y="63" width="190" height="240" as="geometry" />
        </mxCell>
        <mxCell id="AxeUdkAFy8dNkmWW4xOx-88" value="DP&lt;sub style=&quot;border-color: var(--border-color);&quot;&gt;H&lt;/sub&gt;&lt;sup&gt;M+1 &amp;amp; M+2&lt;/sup&gt;" style="rounded=0;whiteSpace=wrap;html=1;container=0;fillColor=#6d8764;fontColor=#ffffff;strokeColor=#3A5431;strokeWidth=3;" vertex="1" parent="AxeUdkAFy8dNkmWW4xOx-86">
          <mxGeometry y="160" width="190.00000000000003" height="60" as="geometry" />
        </mxCell>
        <mxCell id="AxeUdkAFy8dNkmWW4xOx-90" value="DP&lt;sub style=&quot;border-color: var(--border-color);&quot;&gt;V&lt;/sub&gt;&lt;sup&gt;M+1 &amp;amp; M+2&lt;/sup&gt;" style="rounded=0;whiteSpace=wrap;html=1;container=0;fillColor=#647687;fontColor=#ffffff;strokeColor=#314354;strokeWidth=3;" vertex="1" parent="AxeUdkAFy8dNkmWW4xOx-86">
          <mxGeometry y="98" width="190.00000000000003" height="60" as="geometry" />
        </mxCell>
        <mxCell id="AxeUdkAFy8dNkmWW4xOx-92" value="DP&lt;sub style=&quot;border-color: var(--border-color);&quot;&gt;O&lt;/sub&gt;&lt;sup&gt;M+1 &amp;amp; M+2&lt;/sup&gt;" style="rounded=0;whiteSpace=wrap;html=1;container=0;fillColor=#76608a;fontColor=#ffffff;strokeColor=#432D57;strokeWidth=3;" vertex="1" parent="AxeUdkAFy8dNkmWW4xOx-86">
          <mxGeometry y="36" width="190.00000000000003" height="60" as="geometry" />
        </mxCell>
        <mxCell id="AxeUdkAFy8dNkmWW4xOx-102" value="(32 x 27)" style="edgeLabel;html=1;align=center;verticalAlign=middle;resizable=0;points=[];fontStyle=1;labelBackgroundColor=none;" vertex="1" connectable="0" parent="AxeUdkAFy8dNkmWW4xOx-440">
          <mxGeometry x="810" y="369.00333333333333" as="geometry">
            <mxPoint x="83" y="33" as="offset" />
          </mxGeometry>
        </mxCell>
        <mxCell id="AxeUdkAFy8dNkmWW4xOx-103" value="(32 x 27)" style="edgeLabel;html=1;align=center;verticalAlign=middle;resizable=0;points=[];fontStyle=1;labelBackgroundColor=none;" vertex="1" connectable="0" parent="AxeUdkAFy8dNkmWW4xOx-440">
          <mxGeometry x="810" y="279.00333333333333" as="geometry">
            <mxPoint x="83" y="33" as="offset" />
          </mxGeometry>
        </mxCell>
        <mxCell id="AxeUdkAFy8dNkmWW4xOx-104" value="&lt;span style=&quot;font-family: Helvetica; font-size: 12px; font-style: normal; font-variant-ligatures: normal; font-variant-caps: normal; font-weight: 700; letter-spacing: normal; orphans: 2; text-indent: 0px; text-transform: none; widows: 2; word-spacing: 0px; -webkit-text-stroke-width: 0px; text-decoration-thickness: initial; text-decoration-style: initial; text-decoration-color: initial; float: none; display: inline !important;&quot;&gt;Shared &lt;br&gt;Weights&lt;/span&gt;" style="text;whiteSpace=wrap;html=1;labelBackgroundColor=none;align=center;" vertex="1" parent="AxeUdkAFy8dNkmWW4xOx-440">
          <mxGeometry x="140" y="149" width="50" height="40" as="geometry" />
        </mxCell>
        <mxCell id="AxeUdkAFy8dNkmWW4xOx-437" value="Previous drum patterns and instrumental groove stacked together" style="text;html=1;strokeColor=none;fillColor=none;align=center;verticalAlign=middle;whiteSpace=wrap;rounded=0;fontSize=16;fontStyle=1" vertex="1" parent="AxeUdkAFy8dNkmWW4xOx-440">
          <mxGeometry y="317" width="190" height="84" as="geometry" />
        </mxCell>
        <mxCell id="AxeUdkAFy8dNkmWW4xOx-57" style="edgeStyle=orthogonalEdgeStyle;rounded=0;orthogonalLoop=1;jettySize=auto;html=1;entryX=0.883;entryY=1.004;entryDx=0;entryDy=0;entryPerimeter=0;" edge="1" parent="AxeUdkAFy8dNkmWW4xOx-440" source="AxeUdkAFy8dNkmWW4xOx-34" target="AxeUdkAFy8dNkmWW4xOx-48">
          <mxGeometry relative="1" as="geometry" />
        </mxCell>
        <mxCell id="AxeUdkAFy8dNkmWW4xOx-59" style="edgeStyle=orthogonalEdgeStyle;rounded=0;orthogonalLoop=1;jettySize=auto;html=1;entryX=0;entryY=0.5;entryDx=0;entryDy=0;strokeWidth=4;" edge="1" parent="AxeUdkAFy8dNkmWW4xOx-440" source="AxeUdkAFy8dNkmWW4xOx-48" target="AxeUdkAFy8dNkmWW4xOx-61">
          <mxGeometry relative="1" as="geometry">
            <mxPoint x="760" y="84" as="targetPoint" />
          </mxGeometry>
        </mxCell>
        <mxCell id="AxeUdkAFy8dNkmWW4xOx-94" style="edgeStyle=orthogonalEdgeStyle;rounded=0;orthogonalLoop=1;jettySize=auto;html=1;entryX=0.5;entryY=1;entryDx=0;entryDy=0;dashed=1;" edge="1" parent="AxeUdkAFy8dNkmWW4xOx-440" source="AxeUdkAFy8dNkmWW4xOx-88" target="AxeUdkAFy8dNkmWW4xOx-61">
          <mxGeometry relative="1" as="geometry">
            <Array as="points">
              <mxPoint x="861" y="199" />
              <mxPoint x="990" y="199" />
              <mxPoint x="990" y="444" />
              <mxPoint x="860" y="444" />
            </Array>
          </mxGeometry>
        </mxCell>
        <mxCell id="AxeUdkAFy8dNkmWW4xOx-95" value="Shifted Right by 1 Step" style="edgeLabel;html=1;align=center;verticalAlign=middle;resizable=0;points=[];fontSize=16;rounded=0;fontStyle=1" vertex="1" connectable="0" parent="AxeUdkAFy8dNkmWW4xOx-94">
          <mxGeometry x="0.5942" y="7" relative="1" as="geometry">
            <mxPoint x="-60" y="3" as="offset" />
          </mxGeometry>
        </mxCell>
        <mxCell id="AxeUdkAFy8dNkmWW4xOx-441" value="" style="group" vertex="1" connectable="0" parent="1">
          <mxGeometry x="-530" y="1155" width="570" height="570" as="geometry" />
        </mxCell>
        <mxCell id="AxeUdkAFy8dNkmWW4xOx-105" value="" style="rounded=1;whiteSpace=wrap;html=1;fillColor=#f0a30a;fontColor=#000000;strokeColor=#BD7000;fontStyle=1;opacity=30;" vertex="1" parent="AxeUdkAFy8dNkmWW4xOx-441">
          <mxGeometry y="75" width="530" height="290" as="geometry" />
        </mxCell>
        <mxCell id="AxeUdkAFy8dNkmWW4xOx-431" value="(16 x 30&lt;span style=&quot;font-size: 15px;&quot;&gt;)&lt;/span&gt;" style="text;html=1;strokeColor=none;fillColor=none;align=center;verticalAlign=middle;whiteSpace=wrap;rounded=0;fontStyle=1;fontSize=15;" vertex="1" parent="AxeUdkAFy8dNkmWW4xOx-441">
          <mxGeometry x="320" y="315" width="150" height="30" as="geometry" />
        </mxCell>
        <mxCell id="AxeUdkAFy8dNkmWW4xOx-122" value="" style="group;fontSize=15;" vertex="1" connectable="0" parent="AxeUdkAFy8dNkmWW4xOx-441">
          <mxGeometry x="270" y="355" width="20" height="215" as="geometry" />
        </mxCell>
        <mxCell id="AxeUdkAFy8dNkmWW4xOx-106" value="" style="group;fontStyle=1;fontSize=15;" vertex="1" connectable="0" parent="AxeUdkAFy8dNkmWW4xOx-122">
          <mxGeometry width="20" height="170" as="geometry" />
        </mxCell>
        <mxCell id="AxeUdkAFy8dNkmWW4xOx-108" value="&lt;b style=&quot;font-size: 15px;&quot;&gt;H&lt;/b&gt;" style="rounded=0;whiteSpace=wrap;html=1;container=0;fillColor=#6d8764;fontColor=#ffffff;strokeColor=#3A5431;strokeWidth=1;fontSize=15;" vertex="1" parent="AxeUdkAFy8dNkmWW4xOx-106">
          <mxGeometry y="113.33333333333334" width="20" height="56.66666666666667" as="geometry" />
        </mxCell>
        <mxCell id="AxeUdkAFy8dNkmWW4xOx-110" value="&lt;b style=&quot;font-size: 15px;&quot;&gt;V&lt;/b&gt;" style="rounded=0;whiteSpace=wrap;html=1;container=0;fillColor=#647687;fontColor=#ffffff;strokeColor=#314354;strokeWidth=1;fontSize=15;" vertex="1" parent="AxeUdkAFy8dNkmWW4xOx-106">
          <mxGeometry y="56.66666666666667" width="20" height="56.66666666666667" as="geometry" />
        </mxCell>
        <mxCell id="AxeUdkAFy8dNkmWW4xOx-114" value="" style="edgeStyle=orthogonalEdgeStyle;rounded=0;orthogonalLoop=1;jettySize=auto;html=1;fontSize=15;" edge="1" parent="AxeUdkAFy8dNkmWW4xOx-106" target="AxeUdkAFy8dNkmWW4xOx-112">
          <mxGeometry relative="1" as="geometry">
            <mxPoint x="9.99310344827586" y="42.499999999999844" as="sourcePoint" />
          </mxGeometry>
        </mxCell>
        <mxCell id="AxeUdkAFy8dNkmWW4xOx-112" value="&lt;b style=&quot;font-size: 15px;&quot;&gt;O&lt;/b&gt;" style="rounded=0;whiteSpace=wrap;html=1;container=0;fillColor=#76608a;fontColor=#ffffff;strokeColor=#432D57;strokeWidth=1;fontSize=15;" vertex="1" parent="AxeUdkAFy8dNkmWW4xOx-106">
          <mxGeometry width="20" height="56.66666666666667" as="geometry" />
        </mxCell>
        <mxCell id="AxeUdkAFy8dNkmWW4xOx-115" value="t = 0" style="text;html=1;strokeColor=none;fillColor=none;align=center;verticalAlign=middle;whiteSpace=wrap;rounded=0;rotation=-90;fontStyle=1;fontSize=15;" vertex="1" parent="AxeUdkAFy8dNkmWW4xOx-122">
          <mxGeometry x="-10" y="185" width="40" height="20" as="geometry" />
        </mxCell>
        <mxCell id="AxeUdkAFy8dNkmWW4xOx-123" value="" style="group;fontSize=15;" vertex="1" connectable="0" parent="AxeUdkAFy8dNkmWW4xOx-441">
          <mxGeometry x="300" y="355" width="20" height="215" as="geometry" />
        </mxCell>
        <mxCell id="AxeUdkAFy8dNkmWW4xOx-124" value="" style="group;fontStyle=1;fontSize=15;" vertex="1" connectable="0" parent="AxeUdkAFy8dNkmWW4xOx-123">
          <mxGeometry width="20" height="170" as="geometry" />
        </mxCell>
        <mxCell id="AxeUdkAFy8dNkmWW4xOx-125" value="&lt;b style=&quot;font-size: 15px;&quot;&gt;H&lt;/b&gt;" style="rounded=0;whiteSpace=wrap;html=1;container=0;fillColor=#6d8764;fontColor=#ffffff;strokeColor=#3A5431;strokeWidth=1;fontSize=15;" vertex="1" parent="AxeUdkAFy8dNkmWW4xOx-124">
          <mxGeometry y="113.33333333333334" width="20" height="56.66666666666667" as="geometry" />
        </mxCell>
        <mxCell id="AxeUdkAFy8dNkmWW4xOx-126" value="&lt;b style=&quot;font-size: 15px;&quot;&gt;V&lt;/b&gt;" style="rounded=0;whiteSpace=wrap;html=1;container=0;fillColor=#647687;fontColor=#ffffff;strokeColor=#314354;strokeWidth=1;fontSize=15;" vertex="1" parent="AxeUdkAFy8dNkmWW4xOx-124">
          <mxGeometry y="56.66666666666667" width="20" height="56.66666666666667" as="geometry" />
        </mxCell>
        <mxCell id="AxeUdkAFy8dNkmWW4xOx-127" value="" style="edgeStyle=orthogonalEdgeStyle;rounded=0;orthogonalLoop=1;jettySize=auto;html=1;fontSize=15;" edge="1" parent="AxeUdkAFy8dNkmWW4xOx-124" target="AxeUdkAFy8dNkmWW4xOx-128">
          <mxGeometry relative="1" as="geometry">
            <mxPoint x="9.99310344827586" y="42.499999999999844" as="sourcePoint" />
          </mxGeometry>
        </mxCell>
        <mxCell id="AxeUdkAFy8dNkmWW4xOx-128" value="&lt;b style=&quot;font-size: 15px;&quot;&gt;O&lt;/b&gt;" style="rounded=0;whiteSpace=wrap;html=1;container=0;fillColor=#76608a;fontColor=#ffffff;strokeColor=#432D57;strokeWidth=1;fontSize=15;" vertex="1" parent="AxeUdkAFy8dNkmWW4xOx-124">
          <mxGeometry width="20" height="56.66666666666667" as="geometry" />
        </mxCell>
        <mxCell id="AxeUdkAFy8dNkmWW4xOx-129" value="t = 1" style="text;html=1;strokeColor=none;fillColor=none;align=center;verticalAlign=middle;whiteSpace=wrap;rounded=0;rotation=-90;fontStyle=1;fontSize=15;" vertex="1" parent="AxeUdkAFy8dNkmWW4xOx-123">
          <mxGeometry x="-10" y="185" width="40" height="20" as="geometry" />
        </mxCell>
        <mxCell id="AxeUdkAFy8dNkmWW4xOx-130" value="" style="group;fontSize=15;" vertex="1" connectable="0" parent="AxeUdkAFy8dNkmWW4xOx-441">
          <mxGeometry x="420" y="355" width="40" height="215" as="geometry" />
        </mxCell>
        <mxCell id="AxeUdkAFy8dNkmWW4xOx-131" value="" style="group;fontStyle=1;fontSize=15;" vertex="1" connectable="0" parent="AxeUdkAFy8dNkmWW4xOx-130">
          <mxGeometry width="20" height="170" as="geometry" />
        </mxCell>
        <mxCell id="AxeUdkAFy8dNkmWW4xOx-132" value="&lt;b style=&quot;font-size: 15px;&quot;&gt;H&lt;/b&gt;" style="rounded=0;whiteSpace=wrap;html=1;container=0;fillColor=#6d8764;fontColor=#ffffff;strokeColor=#3A5431;strokeWidth=1;fontSize=15;" vertex="1" parent="AxeUdkAFy8dNkmWW4xOx-131">
          <mxGeometry y="113.33333333333334" width="20" height="56.66666666666667" as="geometry" />
        </mxCell>
        <mxCell id="AxeUdkAFy8dNkmWW4xOx-133" value="&lt;b style=&quot;font-size: 15px;&quot;&gt;V&lt;/b&gt;" style="rounded=0;whiteSpace=wrap;html=1;container=0;fillColor=#647687;fontColor=#ffffff;strokeColor=#314354;strokeWidth=1;fontSize=15;" vertex="1" parent="AxeUdkAFy8dNkmWW4xOx-131">
          <mxGeometry y="56.66666666666667" width="20" height="56.66666666666667" as="geometry" />
        </mxCell>
        <mxCell id="AxeUdkAFy8dNkmWW4xOx-134" value="" style="edgeStyle=orthogonalEdgeStyle;rounded=0;orthogonalLoop=1;jettySize=auto;html=1;fontSize=15;" edge="1" parent="AxeUdkAFy8dNkmWW4xOx-131" target="AxeUdkAFy8dNkmWW4xOx-135">
          <mxGeometry relative="1" as="geometry">
            <mxPoint x="9.99310344827586" y="42.499999999999844" as="sourcePoint" />
          </mxGeometry>
        </mxCell>
        <mxCell id="AxeUdkAFy8dNkmWW4xOx-135" value="&lt;b style=&quot;font-size: 15px;&quot;&gt;O&lt;/b&gt;" style="rounded=0;whiteSpace=wrap;html=1;container=0;fillColor=#76608a;fontColor=#ffffff;strokeColor=#432D57;strokeWidth=1;fontSize=15;" vertex="1" parent="AxeUdkAFy8dNkmWW4xOx-131">
          <mxGeometry width="20" height="56.66666666666667" as="geometry" />
        </mxCell>
        <mxCell id="AxeUdkAFy8dNkmWW4xOx-136" value="t = 15" style="text;html=1;strokeColor=none;fillColor=none;align=center;verticalAlign=middle;whiteSpace=wrap;rounded=0;rotation=-90;fontStyle=1;fontSize=15;" vertex="1" parent="AxeUdkAFy8dNkmWW4xOx-130">
          <mxGeometry x="-20" y="186" width="60" height="20" as="geometry" />
        </mxCell>
        <mxCell id="AxeUdkAFy8dNkmWW4xOx-144" value="FCN" style="rounded=0;whiteSpace=wrap;html=1;fillColor=#f0a30a;fontColor=#000000;strokeColor=#BD7000;fontStyle=1;fontSize=15;" vertex="1" parent="AxeUdkAFy8dNkmWW4xOx-441">
          <mxGeometry x="270" y="275" width="170" height="30" as="geometry" />
        </mxCell>
        <mxCell id="AxeUdkAFy8dNkmWW4xOx-145" value="&lt;font style=&quot;font-size: 15px;&quot;&gt;+&lt;/font&gt;" style="ellipse;whiteSpace=wrap;html=1;aspect=fixed;fontSize=15;" vertex="1" parent="AxeUdkAFy8dNkmWW4xOx-441">
          <mxGeometry x="345" y="225" width="20" height="20" as="geometry" />
        </mxCell>
        <mxCell id="AxeUdkAFy8dNkmWW4xOx-165" style="edgeStyle=orthogonalEdgeStyle;rounded=0;orthogonalLoop=1;jettySize=auto;html=1;entryX=0.5;entryY=1;entryDx=0;entryDy=0;fontSize=15;" edge="1" parent="AxeUdkAFy8dNkmWW4xOx-441" source="AxeUdkAFy8dNkmWW4xOx-144" target="AxeUdkAFy8dNkmWW4xOx-145">
          <mxGeometry relative="1" as="geometry" />
        </mxCell>
        <mxCell id="AxeUdkAFy8dNkmWW4xOx-162" value="" style="group;fontSize=15;" vertex="1" connectable="0" parent="AxeUdkAFy8dNkmWW4xOx-441">
          <mxGeometry x="354" y="437" width="30" height="10" as="geometry" />
        </mxCell>
        <mxCell id="AxeUdkAFy8dNkmWW4xOx-157" value="" style="ellipse;whiteSpace=wrap;html=1;aspect=fixed;fillColor=#000000;fontSize=15;" vertex="1" parent="AxeUdkAFy8dNkmWW4xOx-162">
          <mxGeometry width="6" height="6" as="geometry" />
        </mxCell>
        <mxCell id="AxeUdkAFy8dNkmWW4xOx-158" value="" style="ellipse;whiteSpace=wrap;html=1;aspect=fixed;fillColor=#000000;fontSize=15;" vertex="1" parent="AxeUdkAFy8dNkmWW4xOx-162">
          <mxGeometry x="12" width="6" height="6" as="geometry" />
        </mxCell>
        <mxCell id="AxeUdkAFy8dNkmWW4xOx-161" value="" style="ellipse;whiteSpace=wrap;html=1;aspect=fixed;fillColor=#000000;fontSize=15;" vertex="1" parent="AxeUdkAFy8dNkmWW4xOx-162">
          <mxGeometry x="24" width="6" height="6" as="geometry" />
        </mxCell>
        <mxCell id="AxeUdkAFy8dNkmWW4xOx-167" style="edgeStyle=orthogonalEdgeStyle;rounded=0;orthogonalLoop=1;jettySize=auto;html=1;fontSize=15;" edge="1" parent="AxeUdkAFy8dNkmWW4xOx-441" source="AxeUdkAFy8dNkmWW4xOx-166" target="AxeUdkAFy8dNkmWW4xOx-145">
          <mxGeometry relative="1" as="geometry" />
        </mxCell>
        <mxCell id="AxeUdkAFy8dNkmWW4xOx-166" value="&lt;span style=&quot;color: rgb(0, 0, 0); font-family: Helvetica; font-size: 15px; font-style: normal; font-variant-ligatures: normal; font-variant-caps: normal; font-weight: 700; letter-spacing: normal; orphans: 2; text-align: center; text-indent: 0px; text-transform: none; widows: 2; word-spacing: 0px; -webkit-text-stroke-width: 0px; text-decoration-thickness: initial; text-decoration-style: initial; text-decoration-color: initial; float: none; display: inline !important;&quot;&gt;Positional Encoding&lt;/span&gt;" style="text;whiteSpace=wrap;html=1;labelBackgroundColor=none;fontSize=15;" vertex="1" parent="AxeUdkAFy8dNkmWW4xOx-441">
          <mxGeometry x="220" y="215" width="80" height="40" as="geometry" />
        </mxCell>
        <mxCell id="AxeUdkAFy8dNkmWW4xOx-168" value="Non-causal Transformer&lt;br&gt;with Self-Attention" style="rounded=0;whiteSpace=wrap;html=1;fillColor=#f0a30a;fontColor=#000000;strokeColor=#BD7000;fontStyle=1;fontSize=15;" vertex="1" parent="AxeUdkAFy8dNkmWW4xOx-441">
          <mxGeometry x="270" y="125" width="170" height="70" as="geometry" />
        </mxCell>
        <mxCell id="AxeUdkAFy8dNkmWW4xOx-171" style="edgeStyle=orthogonalEdgeStyle;rounded=0;orthogonalLoop=1;jettySize=auto;html=1;fontSize=15;" edge="1" parent="AxeUdkAFy8dNkmWW4xOx-441" source="AxeUdkAFy8dNkmWW4xOx-145" target="AxeUdkAFy8dNkmWW4xOx-168">
          <mxGeometry relative="1" as="geometry" />
        </mxCell>
        <mxCell id="AxeUdkAFy8dNkmWW4xOx-175" value="Last &lt;br&gt;Output&amp;nbsp;" style="text;html=1;strokeColor=none;fillColor=none;align=center;verticalAlign=middle;whiteSpace=wrap;rounded=0;fontSize=15;" vertex="1" parent="AxeUdkAFy8dNkmWW4xOx-441">
          <mxGeometry x="420" y="85" width="100" height="30" as="geometry" />
        </mxCell>
        <mxCell id="AxeUdkAFy8dNkmWW4xOx-177" value="&lt;h1&gt;GrooveEncoder&lt;/h1&gt;&lt;p&gt;&lt;font style=&quot;font-size: 16px;&quot;&gt;Provides a single embedding tensor for a full bar of input&lt;/font&gt;&lt;/p&gt;" style="text;html=1;strokeColor=default;fillColor=none;spacing=5;spacingTop=-20;whiteSpace=wrap;overflow=hidden;rounded=0;" vertex="1" parent="AxeUdkAFy8dNkmWW4xOx-441">
          <mxGeometry x="20" y="100" width="190" height="120" as="geometry" />
        </mxCell>
        <mxCell id="AxeUdkAFy8dNkmWW4xOx-180" value="&amp;nbsp; &amp;nbsp; &amp;nbsp; &amp;nbsp; &amp;nbsp; &amp;nbsp; &amp;nbsp; &amp;nbsp; &amp;nbsp; &amp;nbsp; &amp;nbsp; &amp;nbsp; &amp;nbsp; &amp;nbsp; &amp;nbsp; &amp;nbsp; &amp;nbsp; (1 x d&lt;sub style=&quot;border-color: var(--border-color); font-size: 15px;&quot;&gt;model&lt;/sub&gt;&lt;sup style=&quot;border-color: var(--border-color); font-size: 15px;&quot;&gt;enc&lt;/sup&gt;&lt;span style=&quot;font-size: 15px;&quot;&gt;)&lt;/span&gt;" style="text;html=1;strokeColor=none;fillColor=none;align=center;verticalAlign=middle;whiteSpace=wrap;rounded=0;fontStyle=1;fontSize=15;" vertex="1" parent="AxeUdkAFy8dNkmWW4xOx-441">
          <mxGeometry x="310" y="35" width="260" height="30" as="geometry" />
        </mxCell>
        <mxCell id="AxeUdkAFy8dNkmWW4xOx-179" style="edgeStyle=orthogonalEdgeStyle;rounded=0;orthogonalLoop=1;jettySize=auto;html=1;entryX=0.461;entryY=-0.131;entryDx=0;entryDy=0;entryPerimeter=0;" edge="1" parent="AxeUdkAFy8dNkmWW4xOx-441" source="AxeUdkAFy8dNkmWW4xOx-168" target="AxeUdkAFy8dNkmWW4xOx-180">
          <mxGeometry relative="1" as="geometry">
            <mxPoint x="430.1299999999999" y="54.99000000000001" as="targetPoint" />
            <Array as="points">
              <mxPoint x="430" y="115" />
              <mxPoint x="430" y="115" />
            </Array>
          </mxGeometry>
        </mxCell>
        <mxCell id="AxeUdkAFy8dNkmWW4xOx-211" value="" style="group;rotation=90;" vertex="1" connectable="0" parent="AxeUdkAFy8dNkmWW4xOx-441">
          <mxGeometry x="411" y="-115" width="30" height="260" as="geometry" />
        </mxCell>
        <mxCell id="AxeUdkAFy8dNkmWW4xOx-212" value="" style="rounded=1;whiteSpace=wrap;html=1;fillColor=#bac8d3;strokeColor=#23445d;rotation=90;" vertex="1" parent="AxeUdkAFy8dNkmWW4xOx-211">
          <mxGeometry width="30" height="260" as="geometry" />
        </mxCell>
        <mxCell id="AxeUdkAFy8dNkmWW4xOx-213" value="Bar 1 Embedding" style="text;html=1;strokeColor=none;fillColor=none;align=center;verticalAlign=middle;whiteSpace=wrap;rounded=0;rotation=0;fontStyle=1;fontSize=15;" vertex="1" parent="AxeUdkAFy8dNkmWW4xOx-211">
          <mxGeometry x="-91" y="119" width="188" height="20" as="geometry" />
        </mxCell>
        <mxCell id="AxeUdkAFy8dNkmWW4xOx-432" style="edgeStyle=orthogonalEdgeStyle;rounded=0;orthogonalLoop=1;jettySize=auto;html=1;entryX=0.5;entryY=1;entryDx=0;entryDy=0;" edge="1" parent="AxeUdkAFy8dNkmWW4xOx-441" source="AxeUdkAFy8dNkmWW4xOx-112" target="AxeUdkAFy8dNkmWW4xOx-144">
          <mxGeometry relative="1" as="geometry">
            <Array as="points">
              <mxPoint x="280" y="345" />
              <mxPoint x="355" y="345" />
            </Array>
          </mxGeometry>
        </mxCell>
        <mxCell id="AxeUdkAFy8dNkmWW4xOx-433" style="edgeStyle=orthogonalEdgeStyle;rounded=0;orthogonalLoop=1;jettySize=auto;html=1;entryX=0.5;entryY=1;entryDx=0;entryDy=0;" edge="1" parent="AxeUdkAFy8dNkmWW4xOx-441" source="AxeUdkAFy8dNkmWW4xOx-128" target="AxeUdkAFy8dNkmWW4xOx-144">
          <mxGeometry relative="1" as="geometry">
            <Array as="points">
              <mxPoint x="310" y="345" />
              <mxPoint x="355" y="345" />
            </Array>
          </mxGeometry>
        </mxCell>
        <mxCell id="AxeUdkAFy8dNkmWW4xOx-434" style="edgeStyle=orthogonalEdgeStyle;rounded=0;orthogonalLoop=1;jettySize=auto;html=1;entryX=0.5;entryY=1;entryDx=0;entryDy=0;" edge="1" parent="AxeUdkAFy8dNkmWW4xOx-441" source="AxeUdkAFy8dNkmWW4xOx-135" target="AxeUdkAFy8dNkmWW4xOx-144">
          <mxGeometry relative="1" as="geometry">
            <Array as="points">
              <mxPoint x="430" y="345" />
              <mxPoint x="355" y="345" />
            </Array>
          </mxGeometry>
        </mxCell>
        <mxCell id="AxeUdkAFy8dNkmWW4xOx-436" value="Previous drum patterns and instrumental groove stacked together" style="text;html=1;strokeColor=none;fillColor=none;align=center;verticalAlign=middle;whiteSpace=wrap;rounded=0;fontSize=16;fontStyle=1" vertex="1" parent="AxeUdkAFy8dNkmWW4xOx-441">
          <mxGeometry x="60" y="401" width="190" height="84" as="geometry" />
        </mxCell>
        <mxCell id="AxeUdkAFy8dNkmWW4xOx-442" value="" style="group" vertex="1" connectable="0" parent="1">
          <mxGeometry x="1110" y="950" width="1090" height="870" as="geometry" />
        </mxCell>
        <mxCell id="AxeUdkAFy8dNkmWW4xOx-243" value="" style="rounded=1;whiteSpace=wrap;html=1;fillColor=#0050ef;fontColor=#ffffff;strokeColor=#001DBC;fontStyle=1;opacity=30;" vertex="1" parent="AxeUdkAFy8dNkmWW4xOx-442">
          <mxGeometry x="280" y="201" width="810" height="405" as="geometry" />
        </mxCell>
        <mxCell id="AxeUdkAFy8dNkmWW4xOx-244" value="Causal Transformer&lt;br style=&quot;font-size: 16px;&quot;&gt;with Cross-Attention" style="rounded=1;whiteSpace=wrap;html=1;fillColor=#0050ef;fontColor=#ffffff;strokeColor=#001DBC;fontStyle=1;fontSize=16;" vertex="1" parent="AxeUdkAFy8dNkmWW4xOx-442">
          <mxGeometry x="445" y="410" width="340" height="70" as="geometry" />
        </mxCell>
        <mxCell id="AxeUdkAFy8dNkmWW4xOx-245" value="" style="group;fontSize=15;" vertex="1" connectable="0" parent="AxeUdkAFy8dNkmWW4xOx-442">
          <mxGeometry x="450" y="620" width="30" height="215" as="geometry" />
        </mxCell>
        <mxCell id="AxeUdkAFy8dNkmWW4xOx-246" value="" style="group;fontStyle=1;fontSize=15;" vertex="1" connectable="0" parent="AxeUdkAFy8dNkmWW4xOx-245">
          <mxGeometry width="20" height="170" as="geometry" />
        </mxCell>
        <mxCell id="AxeUdkAFy8dNkmWW4xOx-247" value="&lt;b style=&quot;font-size: 15px;&quot;&gt;H&lt;/b&gt;" style="rounded=0;whiteSpace=wrap;html=1;container=0;fillColor=#6d8764;fontColor=#ffffff;strokeColor=#3A5431;strokeWidth=1;fontSize=15;" vertex="1" parent="AxeUdkAFy8dNkmWW4xOx-246">
          <mxGeometry y="113.33333333333334" width="20" height="56.66666666666667" as="geometry" />
        </mxCell>
        <mxCell id="AxeUdkAFy8dNkmWW4xOx-248" value="&lt;b style=&quot;font-size: 15px;&quot;&gt;V&lt;/b&gt;" style="rounded=0;whiteSpace=wrap;html=1;container=0;fillColor=#647687;fontColor=#ffffff;strokeColor=#314354;strokeWidth=1;fontSize=15;" vertex="1" parent="AxeUdkAFy8dNkmWW4xOx-246">
          <mxGeometry y="56.66666666666667" width="20" height="56.66666666666667" as="geometry" />
        </mxCell>
        <mxCell id="AxeUdkAFy8dNkmWW4xOx-249" value="" style="edgeStyle=orthogonalEdgeStyle;rounded=0;orthogonalLoop=1;jettySize=auto;html=1;fontSize=15;" edge="1" parent="AxeUdkAFy8dNkmWW4xOx-246" target="AxeUdkAFy8dNkmWW4xOx-250">
          <mxGeometry relative="1" as="geometry">
            <mxPoint x="9.99310344827586" y="42.499999999999844" as="sourcePoint" />
          </mxGeometry>
        </mxCell>
        <mxCell id="AxeUdkAFy8dNkmWW4xOx-250" value="&lt;b style=&quot;font-size: 15px;&quot;&gt;O&lt;/b&gt;" style="rounded=0;whiteSpace=wrap;html=1;container=0;fillColor=#76608a;fontColor=#ffffff;strokeColor=#432D57;strokeWidth=1;fontSize=15;" vertex="1" parent="AxeUdkAFy8dNkmWW4xOx-246">
          <mxGeometry width="20" height="56.66666666666667" as="geometry" />
        </mxCell>
        <mxCell id="AxeUdkAFy8dNkmWW4xOx-251" value="START" style="text;html=1;strokeColor=none;fillColor=none;align=center;verticalAlign=middle;whiteSpace=wrap;rounded=0;rotation=-90;fontStyle=1;fontSize=15;" vertex="1" parent="AxeUdkAFy8dNkmWW4xOx-245">
          <mxGeometry x="-10" y="195" width="40" height="20" as="geometry" />
        </mxCell>
        <mxCell id="AxeUdkAFy8dNkmWW4xOx-252" value="" style="group;fontSize=15;" vertex="1" connectable="0" parent="AxeUdkAFy8dNkmWW4xOx-442">
          <mxGeometry x="500" y="620" width="30" height="215" as="geometry" />
        </mxCell>
        <mxCell id="AxeUdkAFy8dNkmWW4xOx-253" value="" style="group;fontStyle=1;fontSize=15;" vertex="1" connectable="0" parent="AxeUdkAFy8dNkmWW4xOx-252">
          <mxGeometry width="20" height="170" as="geometry" />
        </mxCell>
        <mxCell id="AxeUdkAFy8dNkmWW4xOx-254" value="&lt;b style=&quot;font-size: 15px;&quot;&gt;H&lt;/b&gt;" style="rounded=0;whiteSpace=wrap;html=1;container=0;fillColor=#6d8764;fontColor=#ffffff;strokeColor=#3A5431;strokeWidth=1;fontSize=15;" vertex="1" parent="AxeUdkAFy8dNkmWW4xOx-253">
          <mxGeometry y="113.33333333333334" width="20" height="56.66666666666667" as="geometry" />
        </mxCell>
        <mxCell id="AxeUdkAFy8dNkmWW4xOx-255" value="&lt;b style=&quot;font-size: 15px;&quot;&gt;V&lt;/b&gt;" style="rounded=0;whiteSpace=wrap;html=1;container=0;fillColor=#647687;fontColor=#ffffff;strokeColor=#314354;strokeWidth=1;fontSize=15;" vertex="1" parent="AxeUdkAFy8dNkmWW4xOx-253">
          <mxGeometry y="56.66666666666667" width="20" height="56.66666666666667" as="geometry" />
        </mxCell>
        <mxCell id="AxeUdkAFy8dNkmWW4xOx-256" value="" style="edgeStyle=orthogonalEdgeStyle;rounded=0;orthogonalLoop=1;jettySize=auto;html=1;fontSize=15;" edge="1" parent="AxeUdkAFy8dNkmWW4xOx-253" target="AxeUdkAFy8dNkmWW4xOx-257">
          <mxGeometry relative="1" as="geometry">
            <mxPoint x="9.99310344827586" y="42.499999999999844" as="sourcePoint" />
          </mxGeometry>
        </mxCell>
        <mxCell id="AxeUdkAFy8dNkmWW4xOx-257" value="&lt;b style=&quot;font-size: 15px;&quot;&gt;O&lt;/b&gt;" style="rounded=0;whiteSpace=wrap;html=1;container=0;fillColor=#76608a;fontColor=#ffffff;strokeColor=#432D57;strokeWidth=1;fontSize=15;" vertex="1" parent="AxeUdkAFy8dNkmWW4xOx-253">
          <mxGeometry width="20" height="56.66666666666667" as="geometry" />
        </mxCell>
        <mxCell id="AxeUdkAFy8dNkmWW4xOx-258" value="t = 0" style="text;html=1;strokeColor=none;fillColor=none;align=center;verticalAlign=middle;whiteSpace=wrap;rounded=0;rotation=-90;fontStyle=1;fontSize=15;" vertex="1" parent="AxeUdkAFy8dNkmWW4xOx-252">
          <mxGeometry x="-10" y="195" width="40" height="20" as="geometry" />
        </mxCell>
        <mxCell id="AxeUdkAFy8dNkmWW4xOx-259" value="" style="group;fontSize=15;" vertex="1" connectable="0" parent="AxeUdkAFy8dNkmWW4xOx-442">
          <mxGeometry x="740" y="620" width="40" height="215" as="geometry" />
        </mxCell>
        <mxCell id="AxeUdkAFy8dNkmWW4xOx-260" value="" style="group;fontStyle=1;fontSize=15;" vertex="1" connectable="0" parent="AxeUdkAFy8dNkmWW4xOx-259">
          <mxGeometry width="20" height="170" as="geometry" />
        </mxCell>
        <mxCell id="AxeUdkAFy8dNkmWW4xOx-261" value="&lt;b style=&quot;font-size: 15px;&quot;&gt;H&lt;/b&gt;" style="rounded=0;whiteSpace=wrap;html=1;container=0;fillColor=#6d8764;fontColor=#ffffff;strokeColor=#3A5431;strokeWidth=1;fontSize=15;" vertex="1" parent="AxeUdkAFy8dNkmWW4xOx-260">
          <mxGeometry y="113.33333333333334" width="20" height="56.66666666666667" as="geometry" />
        </mxCell>
        <mxCell id="AxeUdkAFy8dNkmWW4xOx-262" value="&lt;b style=&quot;font-size: 15px;&quot;&gt;V&lt;/b&gt;" style="rounded=0;whiteSpace=wrap;html=1;container=0;fillColor=#647687;fontColor=#ffffff;strokeColor=#314354;strokeWidth=1;fontSize=15;" vertex="1" parent="AxeUdkAFy8dNkmWW4xOx-260">
          <mxGeometry y="56.66666666666667" width="20" height="56.66666666666667" as="geometry" />
        </mxCell>
        <mxCell id="AxeUdkAFy8dNkmWW4xOx-263" value="" style="edgeStyle=orthogonalEdgeStyle;rounded=0;orthogonalLoop=1;jettySize=auto;html=1;fontSize=15;" edge="1" parent="AxeUdkAFy8dNkmWW4xOx-260" target="AxeUdkAFy8dNkmWW4xOx-264">
          <mxGeometry relative="1" as="geometry">
            <mxPoint x="9.99310344827586" y="42.499999999999844" as="sourcePoint" />
          </mxGeometry>
        </mxCell>
        <mxCell id="AxeUdkAFy8dNkmWW4xOx-264" value="&lt;b style=&quot;font-size: 15px;&quot;&gt;O&lt;/b&gt;" style="rounded=0;whiteSpace=wrap;html=1;container=0;fillColor=#76608a;fontColor=#ffffff;strokeColor=#432D57;strokeWidth=1;fontSize=15;" vertex="1" parent="AxeUdkAFy8dNkmWW4xOx-260">
          <mxGeometry width="20" height="56.66666666666667" as="geometry" />
        </mxCell>
        <mxCell id="AxeUdkAFy8dNkmWW4xOx-265" value="t = 30" style="text;html=1;strokeColor=none;fillColor=none;align=center;verticalAlign=middle;whiteSpace=wrap;rounded=0;rotation=-90;fontStyle=1;fontSize=15;" vertex="1" parent="AxeUdkAFy8dNkmWW4xOx-259">
          <mxGeometry x="-20" y="195" width="60" height="20" as="geometry" />
        </mxCell>
        <mxCell id="AxeUdkAFy8dNkmWW4xOx-266" value="" style="group;fontSize=15;" vertex="1" connectable="0" parent="AxeUdkAFy8dNkmWW4xOx-442">
          <mxGeometry x="611" y="712" width="30" height="10" as="geometry" />
        </mxCell>
        <mxCell id="AxeUdkAFy8dNkmWW4xOx-267" value="" style="ellipse;whiteSpace=wrap;html=1;aspect=fixed;fillColor=#000000;fontSize=15;" vertex="1" parent="AxeUdkAFy8dNkmWW4xOx-266">
          <mxGeometry width="6" height="6" as="geometry" />
        </mxCell>
        <mxCell id="AxeUdkAFy8dNkmWW4xOx-268" value="" style="ellipse;whiteSpace=wrap;html=1;aspect=fixed;fillColor=#000000;fontSize=15;" vertex="1" parent="AxeUdkAFy8dNkmWW4xOx-266">
          <mxGeometry x="12" width="6" height="6" as="geometry" />
        </mxCell>
        <mxCell id="AxeUdkAFy8dNkmWW4xOx-269" value="" style="ellipse;whiteSpace=wrap;html=1;aspect=fixed;fillColor=#000000;fontSize=15;" vertex="1" parent="AxeUdkAFy8dNkmWW4xOx-266">
          <mxGeometry x="24" width="6" height="6" as="geometry" />
        </mxCell>
        <mxCell id="AxeUdkAFy8dNkmWW4xOx-328" value="FCN" style="rounded=1;whiteSpace=wrap;html=1;fillColor=#0050ef;fontColor=#ffffff;strokeColor=#001DBC;fontStyle=1;fontSize=12;" vertex="1" parent="AxeUdkAFy8dNkmWW4xOx-442">
          <mxGeometry x="450" y="560" width="330" height="30" as="geometry" />
        </mxCell>
        <mxCell id="AxeUdkAFy8dNkmWW4xOx-337" style="edgeStyle=orthogonalEdgeStyle;rounded=0;orthogonalLoop=1;jettySize=auto;html=1;" edge="1" parent="AxeUdkAFy8dNkmWW4xOx-442" source="AxeUdkAFy8dNkmWW4xOx-329" target="AxeUdkAFy8dNkmWW4xOx-244">
          <mxGeometry relative="1" as="geometry" />
        </mxCell>
        <mxCell id="AxeUdkAFy8dNkmWW4xOx-329" value="&lt;font style=&quot;font-size: 15px;&quot;&gt;+&lt;/font&gt;" style="ellipse;whiteSpace=wrap;html=1;aspect=fixed;fontSize=15;" vertex="1" parent="AxeUdkAFy8dNkmWW4xOx-442">
          <mxGeometry x="605" y="510" width="20" height="20" as="geometry" />
        </mxCell>
        <mxCell id="AxeUdkAFy8dNkmWW4xOx-330" style="edgeStyle=orthogonalEdgeStyle;rounded=0;orthogonalLoop=1;jettySize=auto;html=1;entryX=0.5;entryY=1;entryDx=0;entryDy=0;fontSize=15;" edge="1" parent="AxeUdkAFy8dNkmWW4xOx-442" source="AxeUdkAFy8dNkmWW4xOx-328" target="AxeUdkAFy8dNkmWW4xOx-329">
          <mxGeometry relative="1" as="geometry" />
        </mxCell>
        <mxCell id="AxeUdkAFy8dNkmWW4xOx-331" style="edgeStyle=orthogonalEdgeStyle;rounded=0;orthogonalLoop=1;jettySize=auto;html=1;fontSize=15;" edge="1" parent="AxeUdkAFy8dNkmWW4xOx-442" source="AxeUdkAFy8dNkmWW4xOx-332" target="AxeUdkAFy8dNkmWW4xOx-329">
          <mxGeometry relative="1" as="geometry" />
        </mxCell>
        <mxCell id="AxeUdkAFy8dNkmWW4xOx-332" value="&lt;span style=&quot;color: rgb(0, 0, 0); font-family: Helvetica; font-size: 15px; font-style: normal; font-variant-ligatures: normal; font-variant-caps: normal; font-weight: 700; letter-spacing: normal; orphans: 2; text-align: center; text-indent: 0px; text-transform: none; widows: 2; word-spacing: 0px; -webkit-text-stroke-width: 0px; text-decoration-thickness: initial; text-decoration-style: initial; text-decoration-color: initial; float: none; display: inline !important;&quot;&gt;Positional Encoding&lt;/span&gt;" style="text;whiteSpace=wrap;html=1;labelBackgroundColor=none;fontSize=15;" vertex="1" parent="AxeUdkAFy8dNkmWW4xOx-442">
          <mxGeometry x="480" y="500" width="80" height="40" as="geometry" />
        </mxCell>
        <mxCell id="AxeUdkAFy8dNkmWW4xOx-342" style="edgeStyle=orthogonalEdgeStyle;rounded=0;orthogonalLoop=1;jettySize=auto;html=1;entryX=0.5;entryY=1;entryDx=0;entryDy=0;" edge="1" parent="AxeUdkAFy8dNkmWW4xOx-442" source="AxeUdkAFy8dNkmWW4xOx-250" target="AxeUdkAFy8dNkmWW4xOx-328">
          <mxGeometry relative="1" as="geometry">
            <Array as="points">
              <mxPoint x="460" y="610" />
              <mxPoint x="615" y="610" />
            </Array>
          </mxGeometry>
        </mxCell>
        <mxCell id="AxeUdkAFy8dNkmWW4xOx-343" style="edgeStyle=orthogonalEdgeStyle;rounded=0;orthogonalLoop=1;jettySize=auto;html=1;entryX=0.5;entryY=1;entryDx=0;entryDy=0;" edge="1" parent="AxeUdkAFy8dNkmWW4xOx-442" source="AxeUdkAFy8dNkmWW4xOx-257" target="AxeUdkAFy8dNkmWW4xOx-328">
          <mxGeometry relative="1" as="geometry">
            <Array as="points">
              <mxPoint x="510" y="610" />
              <mxPoint x="615" y="610" />
            </Array>
          </mxGeometry>
        </mxCell>
        <mxCell id="AxeUdkAFy8dNkmWW4xOx-344" style="edgeStyle=orthogonalEdgeStyle;rounded=0;orthogonalLoop=1;jettySize=auto;html=1;entryX=0.5;entryY=1;entryDx=0;entryDy=0;" edge="1" parent="AxeUdkAFy8dNkmWW4xOx-442" source="AxeUdkAFy8dNkmWW4xOx-264" target="AxeUdkAFy8dNkmWW4xOx-328">
          <mxGeometry relative="1" as="geometry">
            <Array as="points">
              <mxPoint x="750" y="610" />
              <mxPoint x="615" y="610" />
            </Array>
          </mxGeometry>
        </mxCell>
        <mxCell id="AxeUdkAFy8dNkmWW4xOx-359" value="" style="group;rotation=90;" vertex="1" connectable="0" parent="AxeUdkAFy8dNkmWW4xOx-442">
          <mxGeometry y="315" width="260" height="260" as="geometry" />
        </mxCell>
        <mxCell id="AxeUdkAFy8dNkmWW4xOx-347" value="" style="rounded=1;whiteSpace=wrap;html=1;fillColor=#fad7ac;strokeColor=#b46504;rotation=90;" vertex="1" parent="AxeUdkAFy8dNkmWW4xOx-359">
          <mxGeometry x="115" y="-65" width="30" height="260" as="geometry" />
        </mxCell>
        <mxCell id="AxeUdkAFy8dNkmWW4xOx-348" value="Performance Memory 2" style="text;html=1;strokeColor=none;fillColor=none;align=center;verticalAlign=middle;whiteSpace=wrap;rounded=0;rotation=0;fontStyle=1;fontSize=15;" vertex="1" parent="AxeUdkAFy8dNkmWW4xOx-359">
          <mxGeometry x="20" y="54" width="195" height="20" as="geometry" />
        </mxCell>
        <mxCell id="AxeUdkAFy8dNkmWW4xOx-349" value="" style="group;verticalAlign=middle;fillColor=#fad7ac;strokeColor=#b46504;rounded=1;rotation=90;" vertex="1" connectable="0" parent="AxeUdkAFy8dNkmWW4xOx-359">
          <mxGeometry x="115" y="115" width="30" height="260" as="geometry" />
        </mxCell>
        <mxCell id="AxeUdkAFy8dNkmWW4xOx-350" value="" style="rounded=1;whiteSpace=wrap;html=1;fillColor=#fad7ac;strokeColor=#b46504;rotation=90;" vertex="1" parent="AxeUdkAFy8dNkmWW4xOx-349">
          <mxGeometry width="30" height="260" as="geometry" />
        </mxCell>
        <mxCell id="AxeUdkAFy8dNkmWW4xOx-351" value="Performance Memory M" style="text;html=1;strokeColor=none;fillColor=none;align=center;verticalAlign=middle;whiteSpace=wrap;rounded=0;rotation=0;fontStyle=1;fontSize=15;" vertex="1" parent="AxeUdkAFy8dNkmWW4xOx-349">
          <mxGeometry x="-87" y="120" width="195" height="20" as="geometry" />
        </mxCell>
        <mxCell id="AxeUdkAFy8dNkmWW4xOx-356" value="" style="group;fillColor=#fad7ac;strokeColor=#b46504;rotation=90;" vertex="1" connectable="0" parent="AxeUdkAFy8dNkmWW4xOx-359">
          <mxGeometry x="115" y="-115" width="30" height="260" as="geometry" />
        </mxCell>
        <mxCell id="AxeUdkAFy8dNkmWW4xOx-357" value="" style="rounded=1;whiteSpace=wrap;html=1;fillColor=#fad7ac;strokeColor=#b46504;rotation=90;" vertex="1" parent="AxeUdkAFy8dNkmWW4xOx-356">
          <mxGeometry width="30" height="260" as="geometry" />
        </mxCell>
        <mxCell id="AxeUdkAFy8dNkmWW4xOx-358" value="Performance Memory 1" style="text;html=1;strokeColor=none;fillColor=none;align=center;verticalAlign=middle;whiteSpace=wrap;rounded=0;rotation=0;fontStyle=1;fontSize=15;" vertex="1" parent="AxeUdkAFy8dNkmWW4xOx-356">
          <mxGeometry x="-91" y="119" width="188" height="20" as="geometry" />
        </mxCell>
        <mxCell id="AxeUdkAFy8dNkmWW4xOx-423" value="" style="group;fontSize=15;rotation=90;" vertex="1" connectable="0" parent="AxeUdkAFy8dNkmWW4xOx-359">
          <mxGeometry x="90" y="145" width="70" height="20" as="geometry" />
        </mxCell>
        <mxCell id="AxeUdkAFy8dNkmWW4xOx-424" value="" style="ellipse;whiteSpace=wrap;html=1;aspect=fixed;fillColor=#000000;fontSize=15;rotation=90;" vertex="1" parent="AxeUdkAFy8dNkmWW4xOx-423">
          <mxGeometry x="36" y="-25" width="8.888888888888888" height="8.888888888888888" as="geometry" />
        </mxCell>
        <mxCell id="AxeUdkAFy8dNkmWW4xOx-425" value="" style="ellipse;whiteSpace=wrap;html=1;aspect=fixed;fillColor=#000000;fontSize=15;rotation=90;" vertex="1" parent="AxeUdkAFy8dNkmWW4xOx-423">
          <mxGeometry x="36" y="3" width="8.888888888888888" height="8.888888888888888" as="geometry" />
        </mxCell>
        <mxCell id="AxeUdkAFy8dNkmWW4xOx-426" value="" style="ellipse;whiteSpace=wrap;html=1;aspect=fixed;fillColor=#000000;fontSize=15;rotation=90;" vertex="1" parent="AxeUdkAFy8dNkmWW4xOx-423">
          <mxGeometry x="36" y="31" width="8.888888888888888" height="8.888888888888888" as="geometry" />
        </mxCell>
        <mxCell id="AxeUdkAFy8dNkmWW4xOx-361" value="" style="endArrow=classic;html=1;rounded=0;entryX=0;entryY=0.5;entryDx=0;entryDy=0;" edge="1" parent="AxeUdkAFy8dNkmWW4xOx-442" target="AxeUdkAFy8dNkmWW4xOx-244">
          <mxGeometry width="50" height="50" relative="1" as="geometry">
            <mxPoint x="240" y="445" as="sourcePoint" />
            <mxPoint x="500" y="600" as="targetPoint" />
          </mxGeometry>
        </mxCell>
        <mxCell id="AxeUdkAFy8dNkmWW4xOx-365" value="(M x d&lt;sub style=&quot;border-color: var(--border-color); font-size: 15px;&quot;&gt;model&lt;/sub&gt;&lt;span style=&quot;font-size: 15px;&quot;&gt;)&lt;/span&gt;" style="text;html=1;strokeColor=none;fillColor=none;align=center;verticalAlign=middle;whiteSpace=wrap;rounded=0;fontStyle=1;fontSize=15;" vertex="1" parent="AxeUdkAFy8dNkmWW4xOx-442">
          <mxGeometry x="290" y="410" width="150" height="30" as="geometry" />
        </mxCell>
        <mxCell id="AxeUdkAFy8dNkmWW4xOx-367" value="" style="group;fontStyle=1;fontSize=15;" vertex="1" connectable="0" parent="AxeUdkAFy8dNkmWW4xOx-442">
          <mxGeometry x="450" y="60" width="20" height="170" as="geometry" />
        </mxCell>
        <mxCell id="AxeUdkAFy8dNkmWW4xOx-368" value="&lt;b style=&quot;font-size: 15px;&quot;&gt;H&lt;/b&gt;" style="rounded=0;whiteSpace=wrap;html=1;container=0;fillColor=#6d8764;fontColor=#ffffff;strokeColor=#3A5431;strokeWidth=1;fontSize=15;" vertex="1" parent="AxeUdkAFy8dNkmWW4xOx-367">
          <mxGeometry y="113.33333333333334" width="20" height="56.66666666666667" as="geometry" />
        </mxCell>
        <mxCell id="AxeUdkAFy8dNkmWW4xOx-369" value="&lt;b style=&quot;font-size: 15px;&quot;&gt;V&lt;/b&gt;" style="rounded=0;whiteSpace=wrap;html=1;container=0;fillColor=#647687;fontColor=#ffffff;strokeColor=#314354;strokeWidth=1;fontSize=15;" vertex="1" parent="AxeUdkAFy8dNkmWW4xOx-367">
          <mxGeometry y="56.66666666666667" width="20" height="56.66666666666667" as="geometry" />
        </mxCell>
        <mxCell id="AxeUdkAFy8dNkmWW4xOx-370" value="" style="edgeStyle=orthogonalEdgeStyle;rounded=0;orthogonalLoop=1;jettySize=auto;html=1;fontSize=15;" edge="1" parent="AxeUdkAFy8dNkmWW4xOx-367" target="AxeUdkAFy8dNkmWW4xOx-371">
          <mxGeometry relative="1" as="geometry">
            <mxPoint x="9.99310344827586" y="42.499999999999844" as="sourcePoint" />
          </mxGeometry>
        </mxCell>
        <mxCell id="AxeUdkAFy8dNkmWW4xOx-371" value="&lt;b style=&quot;font-size: 15px;&quot;&gt;O&lt;/b&gt;" style="rounded=0;whiteSpace=wrap;html=1;container=0;fillColor=#76608a;fontColor=#ffffff;strokeColor=#432D57;strokeWidth=1;fontSize=15;" vertex="1" parent="AxeUdkAFy8dNkmWW4xOx-367">
          <mxGeometry width="20" height="56.66666666666667" as="geometry" />
        </mxCell>
        <mxCell id="AxeUdkAFy8dNkmWW4xOx-372" value="" style="group;fontStyle=1;fontSize=15;" vertex="1" connectable="0" parent="AxeUdkAFy8dNkmWW4xOx-442">
          <mxGeometry x="500" y="60" width="20" height="170" as="geometry" />
        </mxCell>
        <mxCell id="AxeUdkAFy8dNkmWW4xOx-373" value="&lt;b style=&quot;font-size: 15px;&quot;&gt;H&lt;/b&gt;" style="rounded=0;whiteSpace=wrap;html=1;container=0;fillColor=#6d8764;fontColor=#ffffff;strokeColor=#3A5431;strokeWidth=1;fontSize=15;" vertex="1" parent="AxeUdkAFy8dNkmWW4xOx-372">
          <mxGeometry y="113.33333333333334" width="20" height="56.66666666666667" as="geometry" />
        </mxCell>
        <mxCell id="AxeUdkAFy8dNkmWW4xOx-374" value="&lt;b style=&quot;font-size: 15px;&quot;&gt;V&lt;/b&gt;" style="rounded=0;whiteSpace=wrap;html=1;container=0;fillColor=#647687;fontColor=#ffffff;strokeColor=#314354;strokeWidth=1;fontSize=15;" vertex="1" parent="AxeUdkAFy8dNkmWW4xOx-372">
          <mxGeometry y="56.66666666666667" width="20" height="56.66666666666667" as="geometry" />
        </mxCell>
        <mxCell id="AxeUdkAFy8dNkmWW4xOx-375" value="" style="edgeStyle=orthogonalEdgeStyle;rounded=0;orthogonalLoop=1;jettySize=auto;html=1;fontSize=15;" edge="1" parent="AxeUdkAFy8dNkmWW4xOx-372" target="AxeUdkAFy8dNkmWW4xOx-376">
          <mxGeometry relative="1" as="geometry">
            <mxPoint x="9.99310344827586" y="42.499999999999844" as="sourcePoint" />
          </mxGeometry>
        </mxCell>
        <mxCell id="AxeUdkAFy8dNkmWW4xOx-376" value="&lt;b style=&quot;font-size: 15px;&quot;&gt;O&lt;/b&gt;" style="rounded=0;whiteSpace=wrap;html=1;container=0;fillColor=#76608a;fontColor=#ffffff;strokeColor=#432D57;strokeWidth=1;fontSize=15;" vertex="1" parent="AxeUdkAFy8dNkmWW4xOx-372">
          <mxGeometry width="20" height="56.66666666666667" as="geometry" />
        </mxCell>
        <mxCell id="AxeUdkAFy8dNkmWW4xOx-377" value="" style="group;fontStyle=1;fontSize=15;" vertex="1" connectable="0" parent="AxeUdkAFy8dNkmWW4xOx-442">
          <mxGeometry x="740" y="60" width="20" height="170" as="geometry" />
        </mxCell>
        <mxCell id="AxeUdkAFy8dNkmWW4xOx-378" value="&lt;b style=&quot;font-size: 15px;&quot;&gt;H&lt;/b&gt;" style="rounded=0;whiteSpace=wrap;html=1;container=0;fillColor=#6d8764;fontColor=#ffffff;strokeColor=#3A5431;strokeWidth=1;fontSize=15;" vertex="1" parent="AxeUdkAFy8dNkmWW4xOx-377">
          <mxGeometry y="113.33333333333334" width="20" height="56.66666666666667" as="geometry" />
        </mxCell>
        <mxCell id="AxeUdkAFy8dNkmWW4xOx-379" value="&lt;b style=&quot;font-size: 15px;&quot;&gt;V&lt;/b&gt;" style="rounded=0;whiteSpace=wrap;html=1;container=0;fillColor=#647687;fontColor=#ffffff;strokeColor=#314354;strokeWidth=1;fontSize=15;" vertex="1" parent="AxeUdkAFy8dNkmWW4xOx-377">
          <mxGeometry y="56.66666666666667" width="20" height="56.66666666666667" as="geometry" />
        </mxCell>
        <mxCell id="AxeUdkAFy8dNkmWW4xOx-380" value="" style="edgeStyle=orthogonalEdgeStyle;rounded=0;orthogonalLoop=1;jettySize=auto;html=1;fontSize=15;" edge="1" parent="AxeUdkAFy8dNkmWW4xOx-377" target="AxeUdkAFy8dNkmWW4xOx-381">
          <mxGeometry relative="1" as="geometry">
            <mxPoint x="9.99310344827586" y="42.499999999999844" as="sourcePoint" />
          </mxGeometry>
        </mxCell>
        <mxCell id="AxeUdkAFy8dNkmWW4xOx-381" value="&lt;b style=&quot;font-size: 15px;&quot;&gt;O&lt;/b&gt;" style="rounded=0;whiteSpace=wrap;html=1;container=0;fillColor=#76608a;fontColor=#ffffff;strokeColor=#432D57;strokeWidth=1;fontSize=15;" vertex="1" parent="AxeUdkAFy8dNkmWW4xOx-377">
          <mxGeometry width="20" height="56.66666666666667" as="geometry" />
        </mxCell>
        <mxCell id="AxeUdkAFy8dNkmWW4xOx-382" value="" style="group;fontSize=15;" vertex="1" connectable="0" parent="AxeUdkAFy8dNkmWW4xOx-442">
          <mxGeometry x="611" y="120" width="30" height="10" as="geometry" />
        </mxCell>
        <mxCell id="AxeUdkAFy8dNkmWW4xOx-383" value="" style="ellipse;whiteSpace=wrap;html=1;aspect=fixed;fillColor=#000000;fontSize=15;" vertex="1" parent="AxeUdkAFy8dNkmWW4xOx-382">
          <mxGeometry width="6" height="6" as="geometry" />
        </mxCell>
        <mxCell id="AxeUdkAFy8dNkmWW4xOx-384" value="" style="ellipse;whiteSpace=wrap;html=1;aspect=fixed;fillColor=#000000;fontSize=15;" vertex="1" parent="AxeUdkAFy8dNkmWW4xOx-382">
          <mxGeometry x="12" width="6" height="6" as="geometry" />
        </mxCell>
        <mxCell id="AxeUdkAFy8dNkmWW4xOx-385" value="" style="ellipse;whiteSpace=wrap;html=1;aspect=fixed;fillColor=#000000;fontSize=15;" vertex="1" parent="AxeUdkAFy8dNkmWW4xOx-382">
          <mxGeometry x="24" width="6" height="6" as="geometry" />
        </mxCell>
        <mxCell id="AxeUdkAFy8dNkmWW4xOx-386" value="t = 0" style="text;html=1;strokeColor=none;fillColor=none;align=center;verticalAlign=middle;whiteSpace=wrap;rounded=0;rotation=-90;fontStyle=1;fontSize=15;" vertex="1" parent="AxeUdkAFy8dNkmWW4xOx-442">
          <mxGeometry x="440" y="20" width="40" height="20" as="geometry" />
        </mxCell>
        <mxCell id="AxeUdkAFy8dNkmWW4xOx-387" value="t = 1" style="text;html=1;strokeColor=none;fillColor=none;align=center;verticalAlign=middle;whiteSpace=wrap;rounded=0;rotation=-90;fontStyle=1;fontSize=15;" vertex="1" parent="AxeUdkAFy8dNkmWW4xOx-442">
          <mxGeometry x="490" y="20" width="40" height="20" as="geometry" />
        </mxCell>
        <mxCell id="AxeUdkAFy8dNkmWW4xOx-388" value="t = 31" style="text;html=1;strokeColor=none;fillColor=none;align=center;verticalAlign=middle;whiteSpace=wrap;rounded=0;rotation=-90;fontStyle=1;fontSize=15;" vertex="1" parent="AxeUdkAFy8dNkmWW4xOx-442">
          <mxGeometry x="720" y="20" width="60" height="20" as="geometry" />
        </mxCell>
        <mxCell id="AxeUdkAFy8dNkmWW4xOx-390" value="FCN" style="rounded=0;whiteSpace=wrap;html=1;fillColor=#6d8764;fontColor=#ffffff;strokeColor=#3A5431;fontStyle=1;fontSize=15;strokeWidth=1;" vertex="1" parent="AxeUdkAFy8dNkmWW4xOx-442">
          <mxGeometry x="440" y="339" width="100" height="30" as="geometry" />
        </mxCell>
        <mxCell id="AxeUdkAFy8dNkmWW4xOx-345" style="edgeStyle=orthogonalEdgeStyle;rounded=0;orthogonalLoop=1;jettySize=auto;html=1;entryX=0.5;entryY=1;entryDx=0;entryDy=0;" edge="1" parent="AxeUdkAFy8dNkmWW4xOx-442" source="AxeUdkAFy8dNkmWW4xOx-244" target="AxeUdkAFy8dNkmWW4xOx-390">
          <mxGeometry relative="1" as="geometry">
            <mxPoint x="490" y="380" as="targetPoint" />
            <Array as="points">
              <mxPoint x="550" y="410" />
              <mxPoint x="550" y="410" />
            </Array>
          </mxGeometry>
        </mxCell>
        <mxCell id="AxeUdkAFy8dNkmWW4xOx-391" style="edgeStyle=orthogonalEdgeStyle;rounded=0;orthogonalLoop=1;jettySize=auto;html=1;entryX=1;entryY=0.5;entryDx=0;entryDy=0;" edge="1" parent="AxeUdkAFy8dNkmWW4xOx-442" source="AxeUdkAFy8dNkmWW4xOx-392" target="AxeUdkAFy8dNkmWW4xOx-374">
          <mxGeometry relative="1" as="geometry">
            <Array as="points">
              <mxPoint x="615" y="145" />
            </Array>
          </mxGeometry>
        </mxCell>
        <mxCell id="AxeUdkAFy8dNkmWW4xOx-392" value="Tanh" style="rounded=0;whiteSpace=wrap;html=1;fillColor=#647687;fontColor=#ffffff;strokeColor=#314354;fontStyle=1;fontSize=15;strokeWidth=1;" vertex="1" parent="AxeUdkAFy8dNkmWW4xOx-442">
          <mxGeometry x="565" y="270" width="100" height="30" as="geometry" />
        </mxCell>
        <mxCell id="AxeUdkAFy8dNkmWW4xOx-393" style="edgeStyle=orthogonalEdgeStyle;rounded=0;orthogonalLoop=1;jettySize=auto;html=1;entryX=1;entryY=0.5;entryDx=0;entryDy=0;" edge="1" parent="AxeUdkAFy8dNkmWW4xOx-442" source="AxeUdkAFy8dNkmWW4xOx-394" target="AxeUdkAFy8dNkmWW4xOx-381">
          <mxGeometry relative="1" as="geometry">
            <Array as="points">
              <mxPoint x="800" y="285" />
              <mxPoint x="800" y="88" />
            </Array>
          </mxGeometry>
        </mxCell>
        <mxCell id="AxeUdkAFy8dNkmWW4xOx-394" value="Tanh" style="rounded=0;whiteSpace=wrap;html=1;fillColor=#76608a;fontColor=#ffffff;strokeColor=#432D57;fontStyle=1;fontSize=15;strokeWidth=1;" vertex="1" parent="AxeUdkAFy8dNkmWW4xOx-442">
          <mxGeometry x="688" y="270" width="100" height="30" as="geometry" />
        </mxCell>
        <mxCell id="AxeUdkAFy8dNkmWW4xOx-402" style="edgeStyle=orthogonalEdgeStyle;rounded=0;orthogonalLoop=1;jettySize=auto;html=1;entryX=0;entryY=0.5;entryDx=0;entryDy=0;" edge="1" parent="AxeUdkAFy8dNkmWW4xOx-442" source="AxeUdkAFy8dNkmWW4xOx-395" target="AxeUdkAFy8dNkmWW4xOx-368">
          <mxGeometry relative="1" as="geometry">
            <Array as="points">
              <mxPoint x="420" y="285" />
              <mxPoint x="420" y="202" />
            </Array>
          </mxGeometry>
        </mxCell>
        <mxCell id="AxeUdkAFy8dNkmWW4xOx-395" value="Sigmoid" style="rounded=0;whiteSpace=wrap;html=1;fillColor=#6d8764;fontColor=#ffffff;strokeColor=#3A5431;fontStyle=1;fontSize=15;strokeWidth=1;" vertex="1" parent="AxeUdkAFy8dNkmWW4xOx-442">
          <mxGeometry x="440" y="270" width="100" height="30" as="geometry" />
        </mxCell>
        <mxCell id="AxeUdkAFy8dNkmWW4xOx-399" style="edgeStyle=orthogonalEdgeStyle;rounded=0;orthogonalLoop=1;jettySize=auto;html=1;entryX=0.5;entryY=1;entryDx=0;entryDy=0;" edge="1" parent="AxeUdkAFy8dNkmWW4xOx-442" source="AxeUdkAFy8dNkmWW4xOx-396" target="AxeUdkAFy8dNkmWW4xOx-392">
          <mxGeometry relative="1" as="geometry" />
        </mxCell>
        <mxCell id="AxeUdkAFy8dNkmWW4xOx-396" value="FCN" style="rounded=0;whiteSpace=wrap;html=1;fillColor=#647687;fontColor=#ffffff;strokeColor=#314354;fontStyle=1;fontSize=15;strokeWidth=1;" vertex="1" parent="AxeUdkAFy8dNkmWW4xOx-442">
          <mxGeometry x="565" y="339" width="100" height="30" as="geometry" />
        </mxCell>
        <mxCell id="AxeUdkAFy8dNkmWW4xOx-401" style="edgeStyle=orthogonalEdgeStyle;rounded=0;orthogonalLoop=1;jettySize=auto;html=1;entryX=0.5;entryY=1;entryDx=0;entryDy=0;" edge="1" parent="AxeUdkAFy8dNkmWW4xOx-442" source="AxeUdkAFy8dNkmWW4xOx-398" target="AxeUdkAFy8dNkmWW4xOx-394">
          <mxGeometry relative="1" as="geometry" />
        </mxCell>
        <mxCell id="AxeUdkAFy8dNkmWW4xOx-398" value="FCN" style="rounded=0;whiteSpace=wrap;html=1;fillColor=#76608a;fontColor=#ffffff;strokeColor=#432D57;fontStyle=1;fontSize=15;strokeWidth=1;" vertex="1" parent="AxeUdkAFy8dNkmWW4xOx-442">
          <mxGeometry x="688" y="339" width="100" height="30" as="geometry" />
        </mxCell>
        <mxCell id="AxeUdkAFy8dNkmWW4xOx-403" value="(32 x d&lt;sub style=&quot;border-color: var(--border-color); font-size: 15px;&quot;&gt;model&lt;/sub&gt;&lt;span style=&quot;font-size: 15px;&quot;&gt;)&lt;/span&gt;" style="text;html=1;strokeColor=none;fillColor=none;align=center;verticalAlign=middle;whiteSpace=wrap;rounded=0;fontStyle=1;fontSize=15;" vertex="1" parent="AxeUdkAFy8dNkmWW4xOx-442">
          <mxGeometry x="600" y="530" width="150" height="30" as="geometry" />
        </mxCell>
        <mxCell id="AxeUdkAFy8dNkmWW4xOx-412" value="(32 x 9&lt;span style=&quot;font-size: 11px;&quot;&gt;)&lt;/span&gt;" style="text;html=1;strokeColor=none;fillColor=none;align=center;verticalAlign=middle;whiteSpace=wrap;rounded=0;fontStyle=1;fontSize=11;" vertex="1" parent="AxeUdkAFy8dNkmWW4xOx-442">
          <mxGeometry x="399" y="310" width="101" height="30" as="geometry" />
        </mxCell>
        <mxCell id="AxeUdkAFy8dNkmWW4xOx-413" value="(32 x 9&lt;span style=&quot;font-size: 11px;&quot;&gt;)&lt;/span&gt;" style="text;html=1;strokeColor=none;fillColor=none;align=center;verticalAlign=middle;whiteSpace=wrap;rounded=0;fontStyle=1;fontSize=11;" vertex="1" parent="AxeUdkAFy8dNkmWW4xOx-442">
          <mxGeometry x="780" y="260" width="101" height="30" as="geometry" />
        </mxCell>
        <mxCell id="AxeUdkAFy8dNkmWW4xOx-414" value="(32 x 9&lt;span style=&quot;font-size: 11px;&quot;&gt;)&lt;/span&gt;" style="text;html=1;strokeColor=none;fillColor=none;align=center;verticalAlign=top;whiteSpace=wrap;rounded=0;fontStyle=1;fontSize=11;" vertex="1" parent="AxeUdkAFy8dNkmWW4xOx-442">
          <mxGeometry x="650" y="310" width="101" height="30" as="geometry" />
        </mxCell>
        <mxCell id="AxeUdkAFy8dNkmWW4xOx-415" value="(32 x 9&lt;span style=&quot;font-size: 11px;&quot;&gt;)&lt;/span&gt;" style="text;html=1;strokeColor=none;fillColor=none;align=center;verticalAlign=middle;whiteSpace=wrap;rounded=0;fontStyle=1;fontSize=11;" vertex="1" parent="AxeUdkAFy8dNkmWW4xOx-442">
          <mxGeometry x="339" y="260" width="101" height="30" as="geometry" />
        </mxCell>
        <mxCell id="AxeUdkAFy8dNkmWW4xOx-416" value="(32 x 9&lt;span style=&quot;font-size: 11px;&quot;&gt;)&lt;/span&gt;" style="text;html=1;strokeColor=none;fillColor=none;align=center;verticalAlign=middle;whiteSpace=wrap;rounded=0;fontStyle=1;fontSize=11;" vertex="1" parent="AxeUdkAFy8dNkmWW4xOx-442">
          <mxGeometry x="525" y="240" width="101" height="30" as="geometry" />
        </mxCell>
        <mxCell id="AxeUdkAFy8dNkmWW4xOx-417" value="(32 x 9&lt;span style=&quot;font-size: 11px;&quot;&gt;)&lt;/span&gt;" style="text;html=1;strokeColor=none;fillColor=none;align=center;verticalAlign=middle;whiteSpace=wrap;rounded=0;fontStyle=1;fontSize=11;" vertex="1" parent="AxeUdkAFy8dNkmWW4xOx-442">
          <mxGeometry x="524" y="310" width="101" height="30" as="geometry" />
        </mxCell>
        <mxCell id="AxeUdkAFy8dNkmWW4xOx-364" value="(32 x d&lt;sub style=&quot;border-color: var(--border-color); font-size: 11px;&quot;&gt;model&lt;/sub&gt;&lt;span style=&quot;font-size: 11px;&quot;&gt;)&lt;/span&gt;" style="text;html=1;strokeColor=none;fillColor=none;align=center;verticalAlign=middle;whiteSpace=wrap;rounded=0;fontStyle=1;fontSize=11;" vertex="1" parent="AxeUdkAFy8dNkmWW4xOx-442">
          <mxGeometry x="399" y="380" width="101" height="30" as="geometry" />
        </mxCell>
        <mxCell id="AxeUdkAFy8dNkmWW4xOx-404" value="(32 x d&lt;sub style=&quot;border-color: var(--border-color); font-size: 11px;&quot;&gt;model&lt;/sub&gt;&lt;span style=&quot;font-size: 11px;&quot;&gt;)&lt;/span&gt;" style="text;html=1;strokeColor=none;fillColor=none;align=center;verticalAlign=middle;whiteSpace=wrap;rounded=0;fontStyle=1;fontSize=11;" vertex="1" parent="AxeUdkAFy8dNkmWW4xOx-442">
          <mxGeometry x="524" y="380" width="101" height="30" as="geometry" />
        </mxCell>
        <mxCell id="AxeUdkAFy8dNkmWW4xOx-405" value="(32 x d&lt;sub style=&quot;border-color: var(--border-color); font-size: 11px;&quot;&gt;model&lt;/sub&gt;&lt;span style=&quot;font-size: 11px;&quot;&gt;)&lt;/span&gt;" style="text;html=1;strokeColor=none;fillColor=none;align=center;verticalAlign=top;whiteSpace=wrap;rounded=0;fontStyle=1;fontSize=11;" vertex="1" parent="AxeUdkAFy8dNkmWW4xOx-442">
          <mxGeometry x="650" y="380" width="101" height="30" as="geometry" />
        </mxCell>
        <mxCell id="AxeUdkAFy8dNkmWW4xOx-400" style="edgeStyle=orthogonalEdgeStyle;rounded=0;orthogonalLoop=1;jettySize=auto;html=1;entryX=0.5;entryY=1;entryDx=0;entryDy=0;" edge="1" parent="AxeUdkAFy8dNkmWW4xOx-442" source="AxeUdkAFy8dNkmWW4xOx-390" target="AxeUdkAFy8dNkmWW4xOx-395">
          <mxGeometry relative="1" as="geometry" />
        </mxCell>
        <mxCell id="AxeUdkAFy8dNkmWW4xOx-428" style="edgeStyle=orthogonalEdgeStyle;rounded=0;orthogonalLoop=1;jettySize=auto;html=1;entryX=0.5;entryY=1;entryDx=0;entryDy=0;dashed=1;dashPattern=8 8;" edge="1" parent="AxeUdkAFy8dNkmWW4xOx-442" source="AxeUdkAFy8dNkmWW4xOx-371" target="AxeUdkAFy8dNkmWW4xOx-254">
          <mxGeometry relative="1" as="geometry">
            <Array as="points">
              <mxPoint x="460" y="50" />
              <mxPoint x="360" y="50" />
              <mxPoint x="360" y="870" />
              <mxPoint x="510" y="870" />
            </Array>
          </mxGeometry>
        </mxCell>
        <mxCell id="AxeUdkAFy8dNkmWW4xOx-435" value="(32 x 27&lt;span style=&quot;font-size: 15px;&quot;&gt;)&lt;/span&gt;" style="text;html=1;strokeColor=none;fillColor=none;align=center;verticalAlign=middle;whiteSpace=wrap;rounded=0;fontStyle=1;fontSize=15;" vertex="1" parent="AxeUdkAFy8dNkmWW4xOx-442">
          <mxGeometry x="600" y="616" width="150" height="30" as="geometry" />
        </mxCell>
        <mxCell id="AxeUdkAFy8dNkmWW4xOx-439" value="&lt;h1&gt;DrumDecoder&lt;/h1&gt;&lt;p&gt;&lt;span style=&quot;font-size: 16px;&quot;&gt;Auto-regressively generates the upcoming 2-bars of drums conditioned on the previous performance encodings&lt;/span&gt;&lt;/p&gt;" style="text;html=1;strokeColor=default;fillColor=none;spacing=5;spacingTop=-20;whiteSpace=wrap;overflow=hidden;rounded=0;" vertex="1" parent="AxeUdkAFy8dNkmWW4xOx-442">
          <mxGeometry x="870" y="227" width="190" height="187.5" as="geometry" />
        </mxCell>
        <mxCell id="AxeUdkAFy8dNkmWW4xOx-341" style="edgeStyle=orthogonalEdgeStyle;rounded=0;orthogonalLoop=1;jettySize=auto;html=1;entryX=0.5;entryY=1;entryDx=0;entryDy=0;" edge="1" parent="AxeUdkAFy8dNkmWW4xOx-442" source="AxeUdkAFy8dNkmWW4xOx-244" target="AxeUdkAFy8dNkmWW4xOx-396">
          <mxGeometry relative="1" as="geometry">
            <mxPoint x="615" y="380" as="targetPoint" />
          </mxGeometry>
        </mxCell>
        <mxCell id="AxeUdkAFy8dNkmWW4xOx-346" style="edgeStyle=orthogonalEdgeStyle;rounded=0;orthogonalLoop=1;jettySize=auto;html=1;entryX=0.519;entryY=1.004;entryDx=0;entryDy=0;entryPerimeter=0;" edge="1" parent="AxeUdkAFy8dNkmWW4xOx-442" source="AxeUdkAFy8dNkmWW4xOx-244" target="AxeUdkAFy8dNkmWW4xOx-398">
          <mxGeometry relative="1" as="geometry">
            <mxPoint x="730" y="380" as="targetPoint" />
            <Array as="points">
              <mxPoint x="680" y="410" />
              <mxPoint x="680" y="410" />
            </Array>
          </mxGeometry>
        </mxCell>
      </root>
    </mxGraphModel>
  </diagram>
</mxfile>
